<svg class="absolute -bottom-[3px] block h-1 w-full" xmlns="http://www.w3.org/2000/svg"><path d="M640 0v3c-5 0-5-2-10-2s-5 2-10 2-5-2-10-2-5 2-10 2-5-2-10-2-5 2-10 2-5-2-10-2-5 2-10 2-5-2-10-2-5 2-10 2c-5.1 0-5.1-2-10-2-5 0-5 2-10 2h-.1c-5 0-5-2-9.9-2-5 0-5 2-10 2h-.1c-5 0-5-2-9.9-2-5 0-5 2-10 2h-.1c-5 0-5-2-9.9-2-5 0-5 2-10 2h-.1c-5 0-5-2-9.9-2-5 0-5 2-10 2h-.1c-5 0-5-2-9.9-2-5 0-5 2-10 2h-.1c-5 0-5-2-9.9-2-5 0-5 2-10 2h-.1c-5 0-5-2-9.9-2-5 0-5 2-10 2h-.1c-5 0-5-2-9.9-2-5 0-5 2-10 2h-.1c-5 0-5-2-9.9-2-5 0-5 2-10 2h-.1c-5 0-5-2-9.9-2-5 0-5 2-10 2h-.1c-5 0-5-2-9.9-2-5 0-5 2-10 2h-.1c-5 0-5-2-9.9-2-5 0-5 2-10 2h-.1c-5 0-5-2-9.9-2-5 0-5 2-10 2h-.1c-5 0-5-2-9.9-2h-.1c-5 0-5 2-10 2s-5-2-10-2-5 2-10 2-5-2-10-2-5 2-10 2-5-2-10-2-5 2-10 2-5-2-10-2-5 2-10 2-5-2-10-2-5 2-10 2-5-2-10-2-5 2-10 2-5-2-10-2-5 2-10 2-5-2-10-2-5 2-10 2-5-2-10-2-5 2-10 2-5-2-10-2-5 2-10 2-5-2-10-2-5 2-10 2-5-2-10-2S5 3 0 3V0h640z"></path></svg>