<svg class="absolute -top-1 block h-1 w-full" xmlns="http://www.w3.org/2000/svg"><path d="M640 .8V5H0V.8h1.4c.2 0 .3 0 .5.1h.3c.1-.1.2 0 .3.1h.9c.2 0 .4.1.6.2.1 0 .2.1.3.1l.2.1c.1.1.3.2.4.4.1.2.3.1.5.1h.2c.1 0 .1 0 .2.1.1 0 .2.1.3.2.1.1.2.1.3.1h.7c.1 0 .1 0 .1-.1.1-.1.2-.1.3-.1H9.3c.1 0 .2.1.4.2H10c.2 0 .5-.1.7-.1.2 0 .4-.1.6-.2.5-.2 1-.4 1.5-.5.5-.2 1.1-.3 1.6-.4.5-.1 1-.1 1.4 0h.5c.1 0 .3.1.4.1.1 0 .2.1.3.1l.2.2.3.3c.2.1.5.3.7.3h.3l.2-.2c.1-.1.3-.2.4-.2.3 0 .5 0 .8.1.1 0 .2.1.4.1 0 0 .1.1.2.1s.3-.1.4 0h.1c.1.1.2.1.4.2.2 0 .5 0 .7-.1h1.1c.1 0 .2 0 .3.1.1.1.4.1.7.1.2 0 .4.1.6.2.2.1.5.1.7.1.3.1.6.1.9 0 .3-.1.4-.3.7-.4.1-.1.3-.2.4-.2.3 0 .7 0 1 .2.3.1.7.1 1.1.1H31.3c.2 0 .3-.1.5-.2.2 0 .6-.1.9-.1h.2l.2-.1c.1 0 .2.2.3.3.1.1.1.2.2.3 0 .1 0 .1.1.2H34.3c.1 0 .2.2.3.3.1 0 .2.1.4.1.1 0 .3 0 .4-.1.2-.1.5-.2.7-.2.2-.1.5 0 .7.2.1.1.1.2.3.1.1 0 .2-.1.3-.2l.5-.3c.2-.1.4-.1.7-.1l.7.1c.1 0 .3.1.4.1h.6c.9 0 1.9 0 2.8-.1.6 0 1.2-.1 1.7-.3l.2.3.2.2c.2.1.4.2.6.2.5.2 1 .3 1.5.4.4.1.8.1 1.2.2h.2c.4-.1.8-.1 1.2 0 .3.1.7.1 1 .2h1c.4 0 .9-.1 1.3-.2s.9-.1 1.3-.2.8-.2 1.1-.3h.2c.1 0 .2 0 .3-.1.2-.1.3-.2.4-.3l.5-.3.2-.1c.1 0 .1 0 .2-.1h.2c.1 0 .2.1.3.1.1.1.2.1.3.2H59.1c.1 0 .2-.1.3-.1l.2-.1c.1-.1.2-.2.4-.2h.5l.5.2c.2.1.4.1.7.2h.7c.1 0 .1 0 .2.1s.2.1.2.1l.2.2c.2.1.3.1.4.1h.7c.1 0 .2.1.3.1.2 0 .3.1.5.1H71.8c1.6 0 2 .3 3.1.4 1.3.1 1.3-.4 2.3-.4.7 0 1.2.5 2.3.4 1.6 0 3.2-.4 4.6-1.1.6 0 .8.4 1.5.4.5 0 1.5-.3 2.3-.4.8-.2 1.5-.2 2.3 0 1.6.1 3.1 0 4.6-.4h1.5c.8-.5.3.1 1.5 0 .6 0 1.8-.2 3.9-.4h.3c1.2 0 2.4-.3 3.6-.7 4 1.4 9.4 0 16.2.4 2.4.1 3.8.8 6.2.8 2.2.2 2.8-.6 4.6-.8 2.4-.2 2.1.7 4.6.4.2 0 1.1-.4.8-.4 1 .1 1.5.6 3.1.8-.3 0 .4-.6.8-.4 1.1.7 3.8.3 6.2.8.3.1 0 .4.8.4.6 0 .8.3 1.5.4 1.5.1 3.6.1 5.4 0 .6 0 .8-.3 1.5-.4 0 0 .9.6.8 0 1.7-.2 1.1.7 2.3.8 3-.7 7.3-.7 9.2-1.9 4.1.1 7.4-.2 9.3-1.1 1.1.2-.1.3 0 .8.7.2 1.4.3 1.5.8 2.7-.5 3.6.4 5.4-.4 1 .1 1.2.7 2.3.8 1.4.1 1.6-.4 3.1-.4 2 .1 3.8.7 6.2.4 2.7-.1 2.9-1.3 5.4-1.5 4.3-.5 6.9.9 10.8.4.7-.1 1.3-.3 2.3-.4.3 0 .6-.2.8-.4.9-.1.4.3.8.4 1.3-.3 2.6-.4 3.9-.4 2.1.1 4.2.5 6.2 1.1 2.3.1 2.4-.9 4.6-.8.5.4 1.8.4 1.5 1.1.8-.9 5.5.2 6.2-.8 2 0 1.1 1.5 3.1 1.5 2.4.4 3.5 0 6.9.4.8.2 1.5.3 2.3.4 1.3-.1 2.6-.4 3.9-.8 1.5-.3 3.4.1 3.9-.8.2.4 1.8.1 2.3.4.9.5.6-.2 2.3 0 .2.2.5.3.8.4l1.1.1c.5 0 .9.1 1.3.1s.9.1 1.3.2c.2 0 .4.1.5.2l.2.1.2.1h.2c.1 0 .1.1.1.1.1 0 .1.1.2.1H270.8l.1-.1h.5c.1 0 .2.1.3.1H274.4c.6-.1 3.9-.6 5.4-.8.8-.1 1.5-.1 2.3 0 1.3.3 2.6.3 3.9 0 1.7-.2 2.5-.2 5.4-.4 1.2-.1 1.3-.3 2.3-.4.9-.1.5.3.8.4.1 0 2.3-.4 2.3-.4.8-.5.8-.2 3.1 0 .8-.3 1.7-.6 2.6-.8.7-.2 1.3-.4 1.9-.7.3-.1.6 0 .8.1.3.1.7.2 1 .1h1.5c.8-.1 1.7 0 2.5.1l.8.2c.5.1 1 .1 1.5-.1.2-.1.5-.1.7-.1.4 0 .7.1 1.1.1.3 0 .5 0 .8-.1.5-.1.9-.1 1.4-.1h.4c.2 0 .3.3.4.4.5.4 1.1.5 1.8.4.5-.1 1-.1 1.4-.1h.7c.2 0 .4-.1.6-.3.3-.2.3-.3.6-.3h.4c.2.1.3.3.5.4.5.3 1.2-.1 1.7-.3.2-.1.3-.1.5-.1s.3.2.5.3c.3 0 .7-.2.9-.4.4-.1.8-.1 1.2-.1.1 0 .2-.1.4-.1s.4.1.5.2c.3.1.5.2.8.3l.3.3c.1.1.2.3.4.4.2.1.4.2.7.2h1.5c.5 0 1 .1 1.4.2 1 .3 1.9.5 2.9.6 2.4.2 5.1-.4 6.9 0 1.7-.2 1.1.7 2.3.8 2.5-.5 6.9-.1 10.8-.4 1.1-.1 3.3 0 3.9-.8 1 .2 1.3.6 2.3.8 1 .2 3-.3 3.1.4 1.6-.6 3.7 0 6.2-.4.3-.1.6-.2.8-.4.6-.1.8.5 1.5.4.2-.2.5-.3.8-.4 2.3-.3 4.6-.3 6.9 0 .7.1 1.6-.1 2.3 0 1.1.2 3.1.6 4.6.8-.3 0 .4-.6.8-.4 1.7 1 6.3-.6 10-.4 2.3-.5 2.3.7 3.9.8.9 0 1.4 0 1.5.4 1.7-1.3 8.1-.3 9.2-1.9 1-.3 1.3.4 1.5.4 1.5.1 1.6-.2 3.9-.4h1.5c.4-.2.6-.3 3.1 0 1.7.2 1.6.1 3.9.4.3 0 .6.2.8.4.5 0 1.4-.4 2.3-.4 1.8 0 3.7.4 6.9.4.7 0 1.4-.6 1.5 0 1.6-.1 2.1-.8 3.1-1.1 2.5.6 5.1.7 7.7.4-.3.8.5 1 .8 1.5 6.2-.5 12.2.7 17-1.9.8 0 1.6.1 2.3.4 1.2.2 2.6.6 3.8 0v-.8c.5 0 1.5.3 2.3.4.3.1.6.2.8.4.6.1.9-.4.8-.4 1.5.3 3.1.6 4.6.8 3.1.3 1.9-1.6 4.6-1.5-.1 1.1 2.3.9 2.3 1.9 0 0 4.6 0 5-.1 2-.1 4.1-.2 6.1-.2.9 0 1.8 0 2.7.1.5 0 .9.1 1.3.1.2 0 .4.1.6.1.2 0 .3-.1.4-.1h.4c.1 0 .2-.1.3-.1.2-.1.5-.2.8-.2h.4c.2 0 .3-.1.5-.1s.4.1.6.2c.4.1.7 0 1.1-.2.4-.3.9-.5 1.4-.5.2 0 .4 0 .6-.1.4-.2.7-.4.9-.8.1-.2.2-.3.4-.3h.5c.1 0 .3-.1.4-.1.4 0 .7.3 1 .6.1.1.2.3.3.3h.4c.7 0 1.5.2 2.2.2.2 0 .4 0 .7-.1h.5c.6-.1 1.2 0 1.8.1 0 0 0 .1-.1.1.2 0 .3.1.5.1h1c.5 0 .9.1 1.4.2.4.2.9.3 1.3.3.3-.1.6-.3.9-.4s.5 0 .7-.1c.3 0 .6 0 .9.1.2 0 .4.1.5.2.2.1.2.4.3.5s.4 0 .5 0c.2 0 .4 0 .6-.1.2-.1.5-.2.8-.3.4-.1.8.5 1.2.4.8-.2 1.5-.1 2.2-.7.2-.2.4-.3.6-.5.3-.2.5-.4.7-.6.1-.1.2-.2.3-.2.3 0 .6.1.9.2.4 0 .8.1 1.2.1.2 0 .4 0 .6-.1.5-.1 1.1-.1 1.6-.1.6 0 1.1-.2 1.7-.3h1.7c.2.1.3.3.5.3s.1 0 .3-.1c.2-.1.4-.1.6-.1.2 0 .5-.1.7-.1.2-.1.2 0 .4.1.3.2.6.3.9.3.2 0 .3-.2.5-.2.2-.1.4-.1.6-.1h1.2c.2-.1.5-.2.7-.3.2-.1.4-.4.6-.5.2-.1.6.1.8.3s.4.3.6.5c.2.2.1.1.2.1.2 0 .3-.1.5-.2.1 0 .4-.1.5 0 .1.1.1.2.1.3 0 .3.3.5.6.4h.1c.4-.1.6-.6 1-.3.2.1.3.2.6.1.2-.1.3-.1.5-.1.3 0 .6.1.9.4.3.2.6.4 1 .4.3 0 .5-.4.9-.4.2 0 .5 0 .7.1.1 0 .2.1.3.1h2.2c.1 0 .3-.1.4-.1h1c.3 0 .6.1.8.1h.6c.2 0 .5.1.7.1h1.5c.1 0 .2-.1.2-.1.2-.1.5-.4.7-.4 1 0 1.2.7 2.3.8.6 0 1.3-.6 2.3-.4.3.8 3.5.6 4.6 1.1 1.5.1 3.1.1 4.6 0 1.2-.7.6.1 3.1 0 1.8-.1 3.6-.4 5.4-.8 1.7.2 1.6.1 3.8.4.3 0 .6.2.8.4.6 0 .8-.4 1.5-.4.3 0 .6.1.8.4 1.3 0 1.7-.3 3.1-.4 4.5-.3 8.5 0 12.3-.8.3-.1 1.4.1 1.5 0 1.1-.6 4.9.4 6.2-.4.5-.3.6-.7 1.5-.8 1.4 0 1.6.4 3.1.4.6 0 1.3-.6 2.3-.4.2 0-.1 1 .8.8 1.8-.5 3.5-.1 6.2-.4.6-.1.8-.3 1.5-.4h.4l.2.1h.5l1.2-.1c.2 0 .3 0 .5.1s.4 0 .7.1h.8z"></path></svg>