<svg viewBox="0 0 24 24" class="sc-hOqqkJ dTSpKS"><g id="Page-1" stroke="none" stroke-width="1" fill="none" fill-rule="evenodd"><g id="support-banner" fill-rule="nonzero"><path d="M0.923076923,8.30769231 C0.923076923,4.22928 4.22928,0.923076923 8.30769231,0.923076923 L15.6923077,0.923076923 C19.7707385,0.923076923 23.0769231,4.22928 23.0769231,8.30769231 L23.0769231,15.6923077 C23.0769231,19.7707385 19.7707385,23.0769231 15.6923077,23.0769231 L8.30769231,23.0769231 C4.22928,23.0769231 0.923076923,19.7707385 0.923076923,15.6923077 L0.923076923,8.30769231 Z" id="Path" fill="#FFFFFF"></path><path d="M15.2986154,15.3857538 C15.2986154,16.0527692 15.774,16.548 16.4160923,16.548 C17.0580923,16.548 17.5384615,16.0527692 17.5384615,15.3857538 L17.5384615,7.61870769 C17.5384615,6.95676923 17.0580923,6.46153846 16.4160923,6.46153846 C15.774,6.46153846 15.2986154,6.95676923 15.2986154,7.61870769 L15.2986154,15.3857538 Z M10.26,14.0062154 C11.7010154,14.1880615 13.1664923,14.6530154 14.5633846,15.4160308 C14.5584923,15.3553846 14.5536,15.2947385 14.5536,15.2340923 L14.5536,7.77036923 C14.5536,7.72486154 14.5584923,7.67935385 14.5584923,7.63393846 C13.2155077,8.38181538 11.5883077,8.89218462 10.26,9.04375385 L10.26,14.0062154 Z M8.60344615,9.04375385 C7.22123077,9.04375385 6.46153846,9.80686154 6.46153846,11.1813231 L6.46153846,11.8686462 C6.46153846,13.2431077 7.22123077,14.0011385 8.60344615,14.0011385 L9.51996923,14.0011385 L9.51996923,9.04375385 L8.60344615,9.04375385 Z M10.6521231,17.5384615 C11.3137846,17.5384615 11.8186154,16.9977231 11.6226462,16.1892 L11.2991077,14.8500923 C10.9511077,14.7085846 10.2257538,14.6328 9.57387692,14.6277231 L8.46618462,14.6277231 L9.43172308,16.6237846 C9.71603077,17.2100308 10.0248,17.5384615 10.6521231,17.5384615 Z" id="Shape" fill="#7C41FF"></path><path d="M8.30769231,1.84615385 L15.6923077,1.84615385 L15.6923077,0 L8.30769231,0 L8.30769231,1.84615385 Z M22.1538462,8.30769231 L22.1538462,15.6923077 L24,15.6923077 L24,8.30769231 L22.1538462,8.30769231 Z M15.6923077,22.1538462 L8.30769231,22.1538462 L8.30769231,24 L15.6923077,24 L15.6923077,22.1538462 Z M1.84615385,15.6923077 L1.84615385,8.30769231 L0,8.30769231 L0,15.6923077 L1.84615385,15.6923077 Z M8.30769231,22.1538462 C4.73908615,22.1538462 1.84615385,19.2609231 1.84615385,15.6923077 L0,15.6923077 C0,20.2805538 3.71948308,24 8.30769231,24 L8.30769231,22.1538462 Z M22.1538462,15.6923077 C22.1538462,19.2609231 19.2609231,22.1538462 15.6923077,22.1538462 L15.6923077,24 C20.2805538,24 24,20.2805538 24,15.6923077 L22.1538462,15.6923077 Z M15.6923077,1.84615385 C19.2609231,1.84615385 22.1538462,4.73908615 22.1538462,8.30769231 L24,8.30769231 C24,3.71948308 20.2805538,0 15.6923077,0 L15.6923077,1.84615385 Z M8.30769231,0 C3.71948308,0 0,3.71948308 0,8.30769231 L1.84615385,8.30769231 C1.84615385,4.73908615 4.73908615,1.84615385 8.30769231,1.84615385 L8.30769231,0 Z" id="Shape" fill="#7C41FF"></path></g></g></svg>