<svg width="16" height="16" viewBox="0 0 16 16" fill="none" xmlns="http://www.w3.org/2000/svg" class=" " role="img" aria-hidden="false" aria-labelledby="ltclid73_title "><title id="ltclid73_title">Contact</title><path fill-rule="evenodd" clip-rule="evenodd" d="M7.63535e-05 0.499998L0.500077 0L15.5 1.97887e-05L16 0.50002V15.5L15.5 16H0.500003L2.6226e-06 15.5L7.63535e-05 0.499998ZM1.00007 1L1.00001 15H15V1.00002L1.00007 1ZM8 2.99878C6.89543 2.99878 6 3.89421 6 4.99878C6 6.10335 6.89543 6.99878 8 6.99878C9.10457 6.99878 10 6.10335 10 4.99878C10 3.89421 9.10457 2.99878 8 2.99878ZM5 4.99878C5 3.34192 6.34315 1.99878 8 1.99878C9.65685 1.99878 11 3.34192 11 4.99878C11 6.65563 9.65685 7.99878 8 7.99878C6.34315 7.99878 5 6.65563 5 4.99878ZM3.5 9L3 9.5V14H4V10H12V14H13V9.5L12.5 9H3.5Z" fill="currentColor"></path></svg>