<svg viewBox="0 0 24 24" class="sc-hOqqkJ dTSpKS"><g id="Page-1" stroke="none" stroke-width="1" fill="none" fill-rule="evenodd"><g id="sensitive-material" fill-rule="nonzero"><path d="M0.923076923,8.30769231 C0.923076923,4.22928 4.22928,0.923076923 8.30769231,0.923076923 L15.6923077,0.923076923 C19.7707385,0.923076923 23.0769231,4.22928 23.0769231,8.30769231 L23.0769231,15.6923077 C23.0769231,19.7707385 19.7707385,23.0769231 15.6923077,23.0769231 L8.30769231,23.0769231 C4.22928,23.0769231 0.923076923,19.7707385 0.923076923,15.6923077 L0.923076923,8.30769231 Z" id="Path" fill="#FFFFFF"></path><path d="M12,9.2136 C13.3896923,9.2136 14.5175077,10.3414154 14.5175077,11.7310154 C14.5175077,11.9878154 14.4671077,12.2345538 14.3966769,12.4661538 L15.9373846,14.0068615 C16.6371692,13.3875692 17.1910154,12.6121846 17.5384615,11.7260308 C16.6674462,9.52070769 14.5175077,7.9548 12,7.9548 C11.3605846,7.9548 10.7462769,8.05550769 10.1672308,8.24178462 L11.2598769,9.33443077 C11.4964615,9.26390769 11.7432,9.2136 12,9.2136 Z M7.32249231,7.53184615 C7.12615385,7.72827692 7.12615385,8.04544615 7.32249231,8.24178462 L8.31443077,9.23372308 C7.49870769,9.8832 6.84923077,10.7391692 6.46153846,11.7310154 C7.33255385,13.9414154 9.48249231,15.5072308 12,15.5072308 C12.7653231,15.5072308 13.4953846,15.3562154 14.1700615,15.0944308 L15.5395385,16.4639077 C15.7359692,16.6602462 16.0531385,16.6602462 16.2494769,16.4639077 C16.4459077,16.2675692 16.4459077,15.9503077 16.2494769,15.7539692 L8.03750769,7.53184615 C7.84107692,7.33552615 7.51892308,7.33552615 7.32249231,7.53184615 Z M12,14.2485231 C10.6103077,14.2485231 9.48249231,13.1207077 9.48249231,11.7310154 C9.48249231,11.3433231 9.57313846,10.9758462 9.72923077,10.6536 L10.5197538,11.4440308 C10.5046154,11.5346769 10.4894769,11.6303077 10.4894769,11.7310154 C10.4894769,12.5668615 11.1641538,13.2415385 12,13.2415385 C12.1007077,13.2415385 12.1913538,13.2264 12.2869846,13.2062769 L13.0775077,13.9968 C12.7501846,14.1578769 12.3876923,14.2485231 12,14.2485231 Z M13.4953846,11.5648615 C13.4198769,10.86 12.8660308,10.3112308 12.1661538,10.2356308 L13.4953846,11.5648615 Z" id="Shape" fill="#7C41FF"></path><path d="M8.30769231,1.84615385 L15.6923077,1.84615385 L15.6923077,0 L8.30769231,0 L8.30769231,1.84615385 Z M22.1538462,8.30769231 L22.1538462,15.6923077 L24,15.6923077 L24,8.30769231 L22.1538462,8.30769231 Z M15.6923077,22.1538462 L8.30769231,22.1538462 L8.30769231,24 L15.6923077,24 L15.6923077,22.1538462 Z M1.84615385,15.6923077 L1.84615385,8.30769231 L0,8.30769231 L0,15.6923077 L1.84615385,15.6923077 Z M8.30769231,22.1538462 C4.73908615,22.1538462 1.84615385,19.2609231 1.84615385,15.6923077 L0,15.6923077 C0,20.2805538 3.71948308,24 8.30769231,24 L8.30769231,22.1538462 Z M22.1538462,15.6923077 C22.1538462,19.2609231 19.2609231,22.1538462 15.6923077,22.1538462 L15.6923077,24 C20.2805538,24 24,20.2805538 24,15.6923077 L22.1538462,15.6923077 Z M15.6923077,1.84615385 C19.2609231,1.84615385 22.1538462,4.73908615 22.1538462,8.30769231 L24,8.30769231 C24,3.71948308 20.2805538,0 15.6923077,0 L15.6923077,1.84615385 Z M8.30769231,0 C3.71948308,0 0,3.71948308 0,8.30769231 L1.84615385,8.30769231 C1.84615385,4.73908615 4.73908615,1.84615385 8.30769231,1.84615385 L8.30769231,0 Z" id="Shape" fill="#7C41FF"></path></g></g></svg>