<svg viewBox="0 0 24 24" class="sc-hOqqkJ dTSpKS"><g id="Page-1" stroke="none" stroke-width="1" fill="none" fill-rule="evenodd"><g id="seo" fill-rule="nonzero"><path d="M0.923076923,8.30769231 C0.923076923,4.22928 4.22928,0.923076923 8.30769231,0.923076923 L15.6923077,0.923076923 C19.7707385,0.923076923 23.0769231,4.22928 23.0769231,8.30769231 L23.0769231,15.6923077 C23.0769231,19.7707385 19.7707385,23.0769231 15.6923077,23.0769231 L8.30769231,23.0769231 C4.22928,23.0769231 0.923076923,19.7707385 0.923076923,15.6923077 L0.923076923,8.30769231 Z" id="Path" fill="#FFFFFF"></path><path d="M11.1672,15.3489231 C11.9474769,15.3489231 12.6833538,15.1350462 13.3141846,14.7674769 L15.3615692,16.7971385 C15.5552308,16.9891385 15.8152615,17.0769231 16.0809231,17.0769231 C16.6508308,17.0769231 17.0769231,16.6435385 17.0769231,16.0840615 C17.0769231,15.8262462 16.9884,15.5738769 16.7892,15.3764308 L14.7639692,13.3686462 C15.1789846,12.7158462 15.4168615,11.9533846 15.4168615,11.136 C15.4168615,8.82110769 13.5023077,6.92307692 11.1672,6.92307692 C8.83763077,6.92307692 6.92307692,8.82110769 6.92307692,11.136 C6.92307692,13.4509846 8.83763077,15.3489231 11.1672,15.3489231 Z M11.1672,13.9446462 C9.60683077,13.9446462 8.33409231,12.6829846 8.33409231,11.136 C8.33409231,9.58910769 9.60683077,8.32735385 11.1672,8.32735385 C12.7276615,8.32735385 14.0058462,9.58910769 14.0058462,11.136 C14.0058462,12.6829846 12.7276615,13.9446462 11.1672,13.9446462 Z" id="Shape" fill="#7C41FF"></path><path d="M8.30769231,1.84615385 L15.6923077,1.84615385 L15.6923077,0 L8.30769231,0 L8.30769231,1.84615385 Z M22.1538462,8.30769231 L22.1538462,15.6923077 L24,15.6923077 L24,8.30769231 L22.1538462,8.30769231 Z M15.6923077,22.1538462 L8.30769231,22.1538462 L8.30769231,24 L15.6923077,24 L15.6923077,22.1538462 Z M1.84615385,15.6923077 L1.84615385,8.30769231 L0,8.30769231 L0,15.6923077 L1.84615385,15.6923077 Z M8.30769231,22.1538462 C4.73908615,22.1538462 1.84615385,19.2609231 1.84615385,15.6923077 L0,15.6923077 C0,20.2805538 3.71948308,24 8.30769231,24 L8.30769231,22.1538462 Z M22.1538462,15.6923077 C22.1538462,19.2609231 19.2609231,22.1538462 15.6923077,22.1538462 L15.6923077,24 C20.2805538,24 24,20.2805538 24,15.6923077 L22.1538462,15.6923077 Z M15.6923077,1.84615385 C19.2609231,1.84615385 22.1538462,4.73908615 22.1538462,8.30769231 L24,8.30769231 C24,3.71948308 20.2805538,0 15.6923077,0 L15.6923077,1.84615385 Z M8.30769231,0 C3.71948308,0 0,3.71948308 0,8.30769231 L1.84615385,8.30769231 C1.84615385,4.73908615 4.73908615,1.84615385 8.30769231,1.84615385 L8.30769231,0 Z" id="Shape" fill="#7C41FF"></path></g></g></svg>