<svg viewBox="0 0 24 24" class="sc-hOqqkJ dTSpKS">
    <g id="Page-1" stroke="none" stroke-width="1" fill="none" fill-rule="evenodd">
    <g id="social-links" fill-rule="nonzero">
    <path d="M0.923076923,8.30769231 C0.923076923,4.22928 4.22928,0.923076923 8.30769231,0.923076923 L15.6923077,0.923076923 C19.7707385,0.923076923 23.0769231,4.22928 23.0769231,8.30769231 L23.0769231,15.6923077 C23.0769231,19.7707385 19.7707385,23.0769231 15.6923077,23.0769231 L8.30769231,23.0769231 C4.22928,23.0769231 0.923076923,19.7707385 0.923076923,15.6923077 L0.923076923,8.30769231 Z" id="Path" fill="#FFFFFF">
    </path>
    <path d="M11.9944615,6.46153846 C8.93723077,6.46153846 6.46153846,8.94276923 6.46153846,12 C6.46153846,15.0572308 8.93723077,17.5384615 11.9944615,17.5384615 C15.0572308,17.5384615 17.5384615,15.0572308 17.5384615,12 C17.5384615,8.94276923 15.0572308,6.46153846 11.9944615,6.46153846 Z M10.0615385,9.78461538 C10.5212308,9.78461538 10.8923077,10.1556923 10.8923077,10.6153846 C10.8923077,11.0750769 10.5212308,11.4461538 10.0615385,11.4461538 C9.60184615,11.4461538 9.23076923,11.0750769 9.23076923,10.6153846 C9.23076923,10.1556923 9.60184615,9.78461538 10.0615385,9.78461538 Z M14.6086154,13.5064615 C14.1046154,14.5864615 13.1298462,15.3230769 12,15.3230769 C10.8701538,15.3230769 9.89538462,14.5864615 9.39138462,13.5064615 C9.30276923,13.3236923 9.43569231,13.1076923 9.64061538,13.1076923 C9.64061538,13.1076923 10.7712,13.6615385 12,13.6615385 C13.2288923,13.6615385 14.3593846,13.1076923 14.3593846,13.1076923 C14.5643077,13.1076923 14.6972308,13.3236923 14.6086154,13.5064615 Z M13.9384615,11.4461538 C13.4787692,11.4461538 13.1076923,11.0750769 13.1076923,10.6153846 C13.1076923,10.1556923 13.4787692,9.78461538 13.9384615,9.78461538 C14.3981538,9.78461538 14.7692308,10.1556923 14.7692308,10.6153846 C14.7692308,11.0750769 14.3981538,11.4461538 13.9384615,11.4461538 Z" id="Shape" fill="#7C41FF"></path><path d="M8.30769231,1.84615385 L15.6923077,1.84615385 L15.6923077,0 L8.30769231,0 L8.30769231,1.84615385 Z M22.1538462,8.30769231 L22.1538462,15.6923077 L24,15.6923077 L24,8.30769231 L22.1538462,8.30769231 Z M15.6923077,22.1538462 L8.30769231,22.1538462 L8.30769231,24 L15.6923077,24 L15.6923077,22.1538462 Z M1.84615385,15.6923077 L1.84615385,8.30769231 L0,8.30769231 L0,15.6923077 L1.84615385,15.6923077 Z M8.30769231,22.1538462 C4.73908615,22.1538462 1.84615385,19.2609231 1.84615385,15.6923077 L0,15.6923077 C0,20.2805538 3.71948308,24 8.30769231,24 L8.30769231,22.1538462 Z M22.1538462,15.6923077 C22.1538462,19.2609231 19.2609231,22.1538462 15.6923077,22.1538462 L15.6923077,24 C20.2805538,24 24,20.2805538 24,15.6923077 L22.1538462,15.6923077 Z M15.6923077,1.84615385 C19.2609231,1.84615385 22.1538462,4.73908615 22.1538462,8.30769231 L24,8.30769231 C24,3.71948308 20.2805538,0 15.6923077,0 L15.6923077,1.84615385 Z M8.30769231,0 C3.71948308,0 0,3.71948308 0,8.30769231 L1.84615385,8.30769231 C1.84615385,4.73908615 4.73908615,1.84615385 8.30769231,1.84615385 L8.30769231,0 Z" id="Shape" fill="#7C41FF"></path></g></g></svg>