<svg width="16" height="16" viewBox="0 0 16 16" fill="none" xmlns="http://www.w3.org/2000/svg" class=" " role="img" aria-hidden="true" aria-labelledby=" "><path fill-rule="evenodd" clip-rule="evenodd" d="M1 5C1 3.34315 2.34315 2 4 2C5.65685 2 7 3.34315 7 5V8H4C2.34315 8 1 6.65685 1 5ZM4 1C6.20914 1 8 2.79086 8 5V8H13.7929L11.1464 5.35355L11.8536 4.64645L15.3536 8.14645V8.85355L11.8536 12.3536L11.1464 11.6464L13.7929 9H8V16H7V9H4C1.79086 9 0 7.20914 0 5C0 2.79086 1.79086 1 4 1Z" fill="currentColor"></path></svg>