<svg width="16" height="16" viewBox="0 0 16 16" fill="none" xmlns="http://www.w3.org/2000/svg" class=" " role="img" aria-hidden="false" aria-labelledby="ltclid3_title "><title id="ltclid3_title">Settings</title><path fill-rule="evenodd" clip-rule="evenodd" d="M11.4607 13.9951L4.53809 13.9951L1.07677 7.99995L4.53809 2.00476L11.4607 2.00476L14.9221 7.99995L11.4607 13.9951ZM0.0664062 8.24995L3.81641 14.7451L4.24942 14.9951L11.7494 14.9951L12.1824 14.7451L15.9324 8.24995V7.74995L12.1824 1.25476L11.7494 1.00476H4.24942L3.81641 1.25476L0.0664062 7.74995V8.24995ZM5.99923 7.99973C5.99923 6.89516 6.89466 5.99973 7.99923 5.99973C9.1038 5.99973 9.99923 6.89516 9.99923 7.99973C9.99923 9.1043 9.1038 9.99973 7.99923 9.99973C6.89466 9.99973 5.99923 9.1043 5.99923 7.99973ZM7.99923 4.99973C6.34238 4.99973 4.99923 6.34288 4.99923 7.99973C4.99923 9.65659 6.34238 10.9997 7.99923 10.9997C9.65609 10.9997 10.9992 9.65659 10.9992 7.99973C10.9992 6.34288 9.65609 4.99973 7.99923 4.99973Z" fill="currentColor"></path></svg>