<svg width="16" height="16" viewBox="0 0 16 16" fill="none" xmlns="http://www.w3.org/2000/svg" class=" " role="img" aria-hidden="true" aria-labelledby=" "><path fill-rule="evenodd" clip-rule="evenodd" d="M13 1C11.8954 1 11 1.89543 11 3C11 4.10457 11.8954 5 13 5C14.1046 5 15 4.10457 15 3C15 1.89543 14.1046 1 13 1ZM10 3C10 1.34315 11.3431 0 13 0C14.6569 0 16 1.34315 16 3C16 4.65685 14.6569 6 13 6C12.0052 6 11.1235 5.51578 10.5777 4.77018L5.87008 7.12398C5.95456 7.4011 6 7.69524 6 8C6 8.30476 5.95456 8.5989 5.87008 8.87602L10.5777 11.2298C11.1235 10.4842 12.0052 10 13 10C14.6569 10 16 11.3431 16 13C16 14.6569 14.6569 16 13 16C11.3431 16 10 14.6569 10 13C10 12.6952 10.0454 12.4011 10.1299 12.124L5.42233 9.77018C4.87654 10.5158 3.99482 11 3 11C1.34315 11 0 9.65685 0 8C0 6.34315 1.34315 5 3 5C3.99481 5 4.87653 5.48422 5.42233 6.22982L10.1299 3.87602C10.0454 3.5989 10 3.30476 10 3ZM3 6C1.89543 6 1 6.89543 1 8C1 9.10457 1.89543 10 3 10C4.10457 10 5 9.10457 5 8C5 6.89543 4.10457 6 3 6ZM11 13C11 11.8954 11.8954 11 13 11C14.1046 11 15 11.8954 15 13C15 14.1046 14.1046 15 13 15C11.8954 15 11 14.1046 11 13Z" fill="currentColor"></path></svg>