<svg width="48" height="48" viewBox="0 0 48 48" fill="none" xmlns="http://www.w3.org/2000/svg">
  <path d="M0 8C0 3.58172 3.58172 0 8 0H40C44.4183 0 48 3.58172 48 8V40C48 44.4183 44.4183 48 40 48H8C3.58172 48 0 44.4183 0 40V8Z" fill="white"/>
  <path fill-rule="evenodd" clip-rule="evenodd" d="M8.92757 23.1783C8.92757 23.1783 9.62732 23.0592 9.91567 23.37C10.2043 23.6806 10.0152 24.3233 9.63219 24.3339C9.24922 24.3445 8.89527 24.4175 8.64396 24.1423C8.39265 23.8671 8.46012 23.3141 8.92757 23.1783ZM16.5238 27.5641C16.4564 27.5714 16.3851 27.5395 16.312 27.4857C15.8103 26.7647 15.6291 24.2991 15.3988 24.1522C15.16 24 14.2952 25.5183 12.575 25.3551C11.8557 25.2868 11.1237 24.8062 10.6926 24.4733C10.7327 23.9131 10.7397 22.6049 11.811 23.0303C12.4619 23.2887 13.5764 23.9982 14.5552 22.724C15.6374 21.3148 16.2343 21.7242 16.5923 22.0305C16.9501 22.3368 16.7117 23.9299 17.2455 23.4845C17.7793 23.0392 19.9348 20.274 19.9348 20.274C19.9348 20.274 21.6036 18.5384 21.8591 20.363C22.1148 22.1875 23.2028 24.2095 23.4911 24.1519C23.7797 24.0942 27.1364 17.0584 27.6173 16.6045C28.0981 16.1505 29.7166 16.2101 29.6397 17.3746C29.5627 18.5391 29.3979 25.7771 29.3979 25.7771C29.3979 25.7771 29.208 27.8167 29.5173 26.7266C29.6456 26.2747 29.7833 25.867 29.9556 25.3914C30.784 22.6562 32.1952 17.9836 32.8984 15.5759C33.0601 14.9998 33.1993 14.5053 33.3073 14.1252L33.3076 14.1241C33.3496 13.948 33.3913 13.8084 33.4332 13.6839C33.492 13.4798 33.5318 13.3448 33.544 13.3092C33.5754 13.2192 33.6636 13.1505 33.7873 13.1001C33.9117 13.0193 34.045 13.0151 34.1962 13.0111C34.5864 12.975 35.0883 13.0275 35.5397 13.1601C35.6711 13.1655 35.8141 13.2089 35.9493 13.309V13.3092C35.9493 13.3092 35.9574 13.3143 35.9688 13.3219C35.9719 13.3244 35.9751 13.3261 35.9783 13.3287C36.0066 13.349 36.0524 13.3889 36.1053 13.4547C36.1069 13.4568 36.1086 13.4594 36.1104 13.4613C36.1323 13.489 36.1544 13.5218 36.1769 13.5592C36.4289 13.9405 36.5838 14.6434 36.4286 15.8901C36.0416 19.0008 35.7419 25.4003 35.7419 25.4003C35.7419 25.4003 35.6823 25.7064 36.3041 24.3586C36.3259 24.3117 36.3536 24.2712 36.379 24.2281C36.4127 24.2053 36.4503 24.1725 36.497 24.1146C36.8811 23.6422 37.9137 23.3649 38.6298 23.3705C38.9316 23.4081 39.1843 23.4864 39.3353 23.5848C39.6179 24.0284 39.4511 25.6655 39.4511 25.6655C38.8554 25.7223 37.7199 26.0529 37.3173 26.1138C36.9147 26.1753 36.3032 28.8711 35.4532 28.5954C34.6031 28.3197 32.7089 27.0943 32.7089 26.9259C32.7089 26.7791 32.8578 24.9883 32.8966 24.5261C32.8994 24.4941 32.9017 24.4645 32.904 24.435C32.9049 24.4265 32.9057 24.4165 32.9057 24.4165L32.9056 24.417C32.933 24.053 32.9086 23.8939 32.7456 24.2573C32.6052 24.5698 31.995 26.5695 31.3147 28.7474C31.2428 28.9377 29.9569 32.951 29.7881 33.4403C29.5867 34.0078 29.4173 34.4423 29.3004 34.667C29.1224 34.9158 28.8827 35.0715 28.5479 34.967C27.7128 34.7068 26.6551 33.5166 26.6453 33.2213C26.6252 31.5559 26.7238 22.6011 26.3322 23.3473C25.9304 24.1125 22.806 29.4224 22.806 29.4224C22.7537 29.4317 22.715 29.43 22.6689 29.4343C22.4477 29.4094 22.1049 29.3352 22.0101 29.1168C22.0049 29.104 21.998 29.0923 21.9934 29.0788C21.9889 29.0653 21.9838 29.05 21.976 29.0253C21.9336 28.8791 21.9162 28.7204 21.8788 28.5904C21.739 28.1039 21.5153 27.4068 21.2807 26.6975C20.9211 25.4882 20.5503 24.2512 20.4893 24.1146C20.3701 23.8474 20.1963 23.96 20.0404 24.1144C19.3431 24.7244 17.8617 27.4169 16.5238 27.5641Z" fill="#FFA202"/>
  <path d="M8 1H40V-1H8V1ZM47 8V40H49V8H47ZM40 47H8V49H40V47ZM1 40V8H-1V40H1ZM8 47C4.13401 47 1 43.866 1 40H-1C-1 44.9706 3.02944 49 8 49V47ZM47 40C47 43.866 43.866 47 40 47V49C44.9706 49 49 44.9706 49 40H47ZM40 1C43.866 1 47 4.13401 47 8H49C49 3.02944 44.9706 -1 40 -1V1ZM8 -1C3.02944 -1 -1 3.02944 -1 8H1C1 4.13401 4.13401 1 8 1V-1Z" fill="#EBEEF1"/>
</svg>
