<svg width="40" height="40" viewBox="0 0 40 40" fill="none" xmlns="http://www.w3.org/2000/svg">
  <path d="M0 8C0 3.58172 3.58172 0 8 0H32C36.4183 0 40 3.58172 40 8V32C40 36.4183 36.4183 40 32 40H8C3.58172 40 0 36.4183 0 32V8Z" fill="white"/>
  <path d="M30.8932 8.33334H26.415V20.3039H30.8932V8.33334Z" fill="#00CEC8"/>
  <path d="M24.9079 14.6194H20.4297V20.3039H24.9079V14.6194Z" fill="#00CEC8"/>
  <path d="M19.2265 14.6194H14.7483V20.3039H19.2265V14.6194Z" fill="#00CEC8"/>
  <path d="M9.06384 8.33334V31.6667H26.0712H26.415H30.9362V21.8938H14.8772V26.1572H26.415V27.4064H13.585V8.33334H9.06384Z" fill="#00CEC8"/>
  <path d="M8 0.833333H32V-0.833333H8V0.833333ZM39.1667 8V32H40.8333V8H39.1667ZM32 39.1667H8V40.8333H32V39.1667ZM0.833333 32V8H-0.833333V32H0.833333ZM8 39.1667C4.04196 39.1667 0.833333 35.958 0.833333 32H-0.833333C-0.833333 36.8785 3.12148 40.8333 8 40.8333V39.1667ZM39.1667 32C39.1667 35.958 35.958 39.1667 32 39.1667V40.8333C36.8785 40.8333 40.8333 36.8785 40.8333 32H39.1667ZM32 0.833333C35.958 0.833333 39.1667 4.04196 39.1667 8H40.8333C40.8333 3.12148 36.8785 -0.833333 32 -0.833333V0.833333ZM8 -0.833333C3.12148 -0.833333 -0.833333 3.12148 -0.833333 8H0.833333C0.833333 4.04196 4.04196 0.833333 8 0.833333V-0.833333Z" fill="#EBEEF1"/>
</svg>
