<svg width="48" height="48" viewBox="0 0 48 48" fill="none" xmlns="http://www.w3.org/2000/svg">
<path d="M0 8C0 3.58172 3.58172 0 8 0H40C44.4183 0 48 3.58172 48 8V40C48 44.4183 44.4183 48 40 48H8C3.58172 48 0 44.4183 0 40V8Z" fill="black"/>
<path d="M15.1563 37.0399C15.0771 37.0108 14.9388 36.9406 14.8489 36.8839C14.649 36.7578 11.8768 34.0053 11.6926 33.75C11.4481 33.4112 11.3696 33.1249 11.4429 32.839C11.5018 32.6092 11.6152 32.4392 11.8656 32.2054C12.0901 31.9957 12.0976 31.9907 14.7721 30.2749C17.7619 28.3568 18.194 28.1001 18.6114 27.9941C18.851 27.9333 19.1435 27.9513 19.3276 28.0383C19.518 28.1283 20.3664 28.9762 20.4562 29.1664C20.5355 29.3344 20.5603 29.6262 20.5125 29.831C20.4103 30.2693 20.207 30.6135 18.2863 33.6001C17.7179 34.4839 17.1353 35.3957 16.9917 35.6263C16.4281 36.5313 16.1683 36.8457 15.8591 36.9969C15.6505 37.099 15.3646 37.1165 15.1563 37.0399ZM29.7721 19.9937C29.5739 19.9252 29.3777 19.7668 28.9705 19.3465C28.7416 19.1102 28.5991 18.9381 28.5509 18.8394C28.4622 18.6577 28.4315 18.403 28.4744 18.203C28.5712 17.752 28.7636 17.4232 30.6425 14.4979C31.2744 13.5141 31.9355 12.4788 32.1117 12.1971C32.2879 11.9154 32.5108 11.5863 32.6069 11.4657C33.1429 10.7937 33.6888 10.7301 34.3465 11.263C34.4618 11.3564 35.1544 12.0345 35.8857 12.7697C37.2468 14.1384 37.3997 14.3129 37.5209 14.637C37.6024 14.8549 37.5917 15.1321 37.4941 15.3317C37.33 15.667 37.025 15.9296 36.1724 16.4692C35.8983 16.6427 34.9704 17.237 34.1105 17.7899C31.7819 19.2869 31.0833 19.7184 30.7262 19.8803C30.365 20.0441 30.0324 20.0836 29.7721 19.9937Z" fill="#D437FD"/>
<path d="M22.428 39.9689C21.8318 39.8821 21.499 39.5778 21.4336 39.0598C21.3946 38.7507 21.4488 38.3822 21.7 37.2472C21.8293 36.6631 22.0369 35.7135 22.1613 35.1371C22.9633 31.4206 23.0704 31.0535 23.4551 30.7059C23.6914 30.4923 23.7953 30.4699 24.5473 30.4699C25.0235 30.4699 25.2333 30.4803 25.328 30.5088C25.5138 30.5648 25.7185 30.7264 25.8469 30.9187C26.1057 31.3063 26.2053 31.69 27.0099 35.4026C27.2031 36.2942 27.4166 37.2625 27.4843 37.5546C27.552 37.8466 27.6275 38.1925 27.652 38.3232C27.705 38.6055 27.7126 39.0745 27.667 39.2475C27.595 39.5204 27.4148 39.7286 27.1431 39.853C26.8409 39.9913 26.7166 39.9982 24.5786 39.9956C23.4873 39.9943 22.5195 39.9823 22.428 39.9689ZM18.7236 20.0277C18.2758 19.9424 17.9003 19.7232 14.9786 17.8424C14.2024 17.3428 13.278 16.7524 12.9245 16.5306C11.9318 15.9078 11.6533 15.6778 11.4858 15.3427C11.3304 15.0317 11.3788 14.6648 11.6233 14.3015C11.7395 14.1288 14.4553 11.3974 14.6852 11.222C15.1852 10.8405 15.6215 10.8093 16.0383 11.1252C16.2781 11.307 16.5229 11.6144 16.8919 12.1974C17.0604 12.4635 17.6588 13.3981 18.2217 14.2742C20.1495 17.2749 20.3485 17.6076 20.4853 18.0579C20.5679 18.33 20.5541 18.6267 20.4493 18.8297C20.3437 19.0342 19.482 19.8824 19.2964 19.9645C19.16 20.0248 18.874 20.0564 18.7236 20.0277Z" fill="#01F0E5"/>
<path d="M33.1527 36.981C32.806 36.8078 32.5733 36.5347 31.998 35.6261C31.7937 35.3033 31.1763 34.3391 30.626 33.4834C29.558 31.8224 29.0861 31.0721 28.8273 30.6235C28.4357 29.9444 28.3585 29.5134 28.5605 29.1345C28.6797 28.9108 29.4595 28.1361 29.6654 28.0367C29.8676 27.9392 30.1715 27.9287 30.4391 28.01C30.8704 28.141 31.1856 28.3301 34.165 30.245C35.0411 30.8081 35.9765 31.4054 36.2435 31.5723C36.5105 31.7392 36.8249 31.9469 36.9422 32.034C37.6531 32.5616 37.7762 33.0969 37.3293 33.7165C37.1701 33.9371 34.3834 36.7163 34.1936 36.8437C33.8298 37.0879 33.4633 37.1362 33.1527 36.981ZM9.24773 27.1058C8.82727 26.9924 8.59878 26.6746 8.5216 26.096C8.50194 25.9485 8.49535 25.1869 8.50226 23.8601C8.51384 21.6362 8.50829 21.7074 8.69818 21.3498C8.84312 21.0768 9.06963 20.9323 9.43144 20.8819C9.6983 20.8448 10.0399 20.8812 10.6191 21.0083C10.8574 21.0606 11.9515 21.2995 13.0506 21.5392C15.3175 22.0335 16.4029 22.2801 16.7595 22.3818C17.4559 22.5802 17.7895 22.794 17.9524 23.1461C18.0075 23.2651 18.0113 23.32 18.0113 23.9999V24.7265L17.9341 24.8837C17.7875 25.1822 17.4611 25.4099 16.9625 25.5615C16.5154 25.6974 15.6756 25.89 13.1065 26.4457C12.3149 26.6169 11.3465 26.8303 10.9545 26.9199C10.5625 27.0095 10.1514 27.0966 10.0409 27.1134C9.78055 27.153 9.40963 27.1494 9.24773 27.1058V27.1058ZM23.7502 17.492C23.3534 17.3468 23.1398 17.0715 22.9482 16.4584C22.8366 16.1013 22.5591 14.8978 22.1192 12.8628C21.9248 11.9635 21.6859 10.8757 21.5883 10.4453C21.3928 9.58362 21.3395 9.22615 21.3677 8.96758C21.4208 8.48247 21.664 8.20651 22.1635 8.06482C22.3302 8.01752 22.4959 8.01385 24.4672 8.01385C26.7738 8.01385 26.7662 8.0134 27.0989 8.17063C27.3123 8.27144 27.5037 8.47592 27.5744 8.67844C27.6147 8.79405 27.6249 8.90556 27.6233 9.2156C27.6216 9.55969 27.6092 9.66078 27.5204 10.054C27.4649 10.3 27.2245 11.3941 26.9863 12.4855C26.1652 16.246 26.1 16.5086 25.8836 16.9258C25.7627 17.159 25.5773 17.3546 25.3894 17.4472C25.2536 17.5141 25.2304 17.5162 24.551 17.5227C24.0233 17.5277 23.8273 17.5202 23.7502 17.492Z" fill="#F8005B"/>
</svg>
