<svg width="48" height="48" viewBox="0 0 48 48" fill="none" xmlns="http://www.w3.org/2000/svg">
<path d="M0 8C0 3.58172 3.58172 0 8 0H40C44.4183 0 48 3.58172 48 8V40C48 44.4183 44.4183 48 40 48H8C3.58172 48 0 44.4183 0 40V8Z" fill="black"/>
<path d="M12.8777 34.7654C15.2548 30.9138 17.9038 29.1104 22.0613 30.19C24.5899 30.8488 27.0672 31.7864 30.1207 31.7864C33.7736 31.7864 35.4945 31.045 35.9518 30.8042C36.0343 30.7623 36.0831 30.6824 36.0831 30.5877V23.8517C36.0831 23.7327 35.9585 23.6529 35.8544 23.7029C35.2699 23.9843 33.5463 24.6351 30.122 24.6351C25.5437 24.6351 22.2711 22.4839 18.1487 22.4839C14.6595 22.4839 12.8371 23.3241 12.3622 23.5757C12.2783 23.6204 12.2296 23.7002 12.2296 23.7922V34.7438C12.2296 34.9967 12.6639 35.109 12.8777 34.7654Z" fill="white"/>
<path d="M36.0776 21.1038C36.0776 21.1931 36.0276 21.2756 35.9505 21.3175C35.4878 21.5543 33.7696 22.297 30.1166 22.297C25.541 22.297 22.2656 20.1486 18.1433 20.1486C14.8759 20.1486 13.0698 20.8819 12.4637 21.1836C12.3541 21.2377 12.2296 21.1632 12.2296 21.0415V14.3028C12.2296 14.2135 12.277 14.1337 12.3568 14.0918C12.8317 13.8334 14.6541 13 18.1433 13C22.2643 13 25.541 15.1484 30.1166 15.1484C33.5408 15.1484 35.2672 14.4949 35.8463 14.2203C35.9531 14.1702 36.0776 14.2474 36.0776 14.3651V21.1038Z" fill="white"/>
</svg>
