<svg width="48" height="48" viewBox="0 0 48 48" fill="none" xmlns="http://www.w3.org/2000/svg">
<path d="M0 8C0 3.58172 3.58172 0 8 0H40C44.4183 0 48 3.58172 48 8V40C48 44.4183 44.4183 48 40 48H8C3.58172 48 0 44.4183 0 40V8Z" fill="#2C1799"/>
<path fill-rule="evenodd" clip-rule="evenodd" d="M31 14.4975H17C15.6193 14.4975 14.5 15.6168 14.5 16.9975V30.9975C14.5 32.3782 15.6193 33.4975 17 33.4975H31C32.3807 33.4975 33.5 32.3782 33.5 30.9975V16.9975C33.5 15.6168 32.3807 14.4975 31 14.4975ZM17 12.9975C14.7909 12.9975 13 14.7884 13 16.9975V30.9975C13 33.2066 14.7909 34.9975 17 34.9975H31C33.2091 34.9975 35 33.2066 35 30.9975V16.9975C35 14.7884 33.2091 12.9975 31 12.9975H17Z" fill="white"/>
<path fill-rule="evenodd" clip-rule="evenodd" d="M17 23.9975C17 23.4452 17.4477 22.9975 18 22.9975H30C30.5523 22.9975 31 23.4452 31 23.9975C31 24.5498 30.5523 24.9975 30 24.9975H18C17.4477 24.9975 17 24.5498 17 23.9975Z" fill="white"/>
<path fill-rule="evenodd" clip-rule="evenodd" d="M17 19.9975C17 19.4452 17.4477 18.9975 18 18.9975H30C30.5523 18.9975 31 19.4452 31 19.9975C31 20.5498 30.5523 20.9975 30 20.9975H18C17.4477 20.9975 17 20.5498 17 19.9975Z" fill="white"/>
<path fill-rule="evenodd" clip-rule="evenodd" d="M17 27.9975C17 27.4452 17.4477 26.9975 18 26.9975H22C22.5523 26.9975 23 27.4452 23 27.9975C23 28.5498 22.5523 28.9975 22 28.9975H18C17.4477 28.9975 17 28.5498 17 27.9975Z" fill="white"/>
</svg>
