<svg width="48" height="48" viewBox="0 0 48 48" fill="none" xmlns="http://www.w3.org/2000/svg">
<path d="M0 8C0 3.58172 3.58172 0 8 0H40C44.4183 0 48 3.58172 48 8V40C48 44.4183 44.4183 48 40 48H8C3.58172 48 0 44.4183 0 40V8Z" fill="#992C87"/>
<path fill-rule="evenodd" clip-rule="evenodd" d="M20 24C21.1046 24 22 23.1046 22 22C22 20.8954 21.1046 20 20 20C18.8954 20 18 20.8954 18 22C18 23.1046 18.8954 24 20 24ZM20 25C16 25 16 28 16 28H24C24 28 24 25 20 25Z" fill="white"/>
<path fill-rule="evenodd" clip-rule="evenodd" d="M26 22C26 21.4477 26.4477 21 27 21H31C31.5523 21 32 21.4477 32 22C32 22.5523 31.5523 23 31 23H27C26.4477 23 26 22.5523 26 22Z" fill="white"/>
<path fill-rule="evenodd" clip-rule="evenodd" d="M26 26C26 25.4477 26.4477 25 27 25H31C31.5523 25 32 25.4477 32 26C32 26.5523 31.5523 27 31 27H27C26.4477 27 26 26.5523 26 26Z" fill="white"/>
<path fill-rule="evenodd" clip-rule="evenodd" d="M32 15.5H16C14.6193 15.5 13.5 16.6193 13.5 18V30C13.5 31.3807 14.6193 32.5 16 32.5H32C33.3807 32.5 34.5 31.3807 34.5 30V18C34.5 16.6193 33.3807 15.5 32 15.5ZM16 14C13.7909 14 12 15.7909 12 18V30C12 32.2091 13.7909 34 16 34H32C34.2091 34 36 32.2091 36 30V18C36 15.7909 34.2091 14 32 14H16Z" fill="white"/>
</svg>
