<svg width="40" height="40" viewBox="0 0 40 40" fill="none" xmlns="http://www.w3.org/2000/svg">
  <path d="M0 8C0 3.58172 3.58172 0 8 0H32C36.4183 0 40 3.58172 40 8V32C40 36.4183 36.4183 40 32 40H8C3.58172 40 0 36.4183 0 32V8Z" fill="white"/>
  <g clip-path="url(#clip0_106_639)">
     <path d="M20 33.3352C27.3638 33.3352 33.3334 27.3656 33.3334 20.0018C33.3334 12.6381 27.3638 6.66854 20 6.66854C12.6362 6.66854 6.66669 12.6381 6.66669 20.0018C6.66669 27.3656 12.6362 33.3352 20 33.3352Z" fill="#1977F3"/>
     <path d="M25.1901 23.8569L25.7807 20.0019H22.0831V17.5006C22.0831 16.4468 22.5988 15.4174 24.2563 15.4174H25.9382V12.1361C25.9382 12.1361 24.4119 11.8755 22.9531 11.8755C19.9081 11.8755 17.9168 13.7205 17.9168 17.0637V20.0019H14.5305V23.8569H17.9168V33.1739C18.5956 33.2808 19.2912 33.3352 20 33.3352C20.7087 33.3352 21.4044 33.2789 22.0831 33.1739V23.8569H25.1901Z" fill="white"/>
  </g>
  <path d="M8 0.833333H32V-0.833333H8V0.833333ZM39.1667 8V32H40.8333V8H39.1667ZM32 39.1667H8V40.8333H32V39.1667ZM0.833333 32V8H-0.833333V32H0.833333ZM8 39.1667C4.04196 39.1667 0.833333 35.958 0.833333 32H-0.833333C-0.833333 36.8785 3.12148 40.8333 8 40.8333V39.1667ZM39.1667 32C39.1667 35.958 35.958 39.1667 32 39.1667V40.8333C36.8785 40.8333 40.8333 36.8785 40.8333 32H39.1667ZM32 0.833333C35.958 0.833333 39.1667 4.04196 39.1667 8H40.8333C40.8333 3.12148 36.8785 -0.833333 32 -0.833333V0.833333ZM8 -0.833333C3.12148 -0.833333 -0.833333 3.12148 -0.833333 8H0.833333C0.833333 4.04196 4.04196 0.833333 8 0.833333V-0.833333Z" fill="#EBEEF1"/>
  <defs>
      <clipPath id="clip0_106_639">
        <rect width="26.6667" height="26.6667" fill="white" transform="translate(6.66669 6.66666)"/>
     </clipPath>
  </defs>
</svg>
