<svg width="40" height="40" viewBox="0 0 40 40" fill="none" xmlns="http://www.w3.org/2000/svg">
<path d="M0 8C0 3.58172 3.58172 0 8 0H32C36.4183 0 40 3.58172 40 8V32C40 36.4183 36.4183 40 32 40H8C3.58172 40 0 36.4183 0 32V8Z" fill="white"/>
<path fill-rule="evenodd" clip-rule="evenodd" d="M15.1145 8.33334L8.21088 15.165L19.9948 19.9949L15.1145 8.33334Z" fill="#6AC3E2"/>
<path fill-rule="evenodd" clip-rule="evenodd" d="M24.8853 8.33334H15.1144L19.9947 19.9949L24.8853 8.33334Z" fill="#6E9FD4"/>
<path fill-rule="evenodd" clip-rule="evenodd" d="M24.8854 31.6667L31.789 24.835L19.9948 19.9939L24.8854 31.6667Z" fill="#F2852F"/>
<path fill-rule="evenodd" clip-rule="evenodd" d="M15.1144 31.6667H24.8853L19.9947 19.9939L15.1144 31.6667Z" fill="#F1C32E"/>
<path fill-rule="evenodd" clip-rule="evenodd" d="M8.21088 24.834L15.1145 31.6657L19.9948 19.9949L8.21088 24.834Z" fill="#CBDC37"/>
<path fill-rule="evenodd" clip-rule="evenodd" d="M8.21088 15.165V24.834L19.9948 19.9948L8.21088 15.165Z" fill="#B5D66D"/>
<path fill-rule="evenodd" clip-rule="evenodd" d="M31.789 24.8752V15.2183L19.9948 20.0472L31.789 24.8752Z" fill="#F26A21"/>
<path d="M8 0.833333H32V-0.833333H8V0.833333ZM39.1667 8V32H40.8333V8H39.1667ZM32 39.1667H8V40.8333H32V39.1667ZM0.833333 32V8H-0.833333V32H0.833333ZM8 39.1667C4.04196 39.1667 0.833333 35.958 0.833333 32H-0.833333C-0.833333 36.8785 3.12148 40.8333 8 40.8333V39.1667ZM39.1667 32C39.1667 35.958 35.958 39.1667 32 39.1667V40.8333C36.8785 40.8333 40.8333 36.8785 40.8333 32H39.1667ZM32 0.833333C35.958 0.833333 39.1667 4.04196 39.1667 8H40.8333C40.8333 3.12148 36.8785 -0.833333 32 -0.833333V0.833333ZM8 -0.833333C3.12148 -0.833333 -0.833333 3.12148 -0.833333 8H0.833333C0.833333 4.04196 4.04196 0.833333 8 0.833333V-0.833333Z" fill="#EBEEF1"/>
</svg>
