<svg width="48" height="48" viewBox="0 0 48 48" fill="none" xmlns="http://www.w3.org/2000/svg">
<rect width="48" height="48" rx="8" fill="#E9C0E9"/>
<path fill-rule="evenodd" clip-rule="evenodd" d="M23.9846 14.7492C21.5316 14.7492 19.179 15.7236 17.4445 17.4582C15.71 19.1927 14.7355 21.5452 14.7355 23.9981V25.0092C15.2406 24.6859 15.8411 24.4984 16.4853 24.4984H17.7352C19.53 24.4984 20.9849 25.9533 20.9849 27.748V31.4976C20.9849 33.2923 19.53 34.7472 17.7352 34.7472H16.4853C14.6906 34.7472 13.2357 33.2923 13.2357 31.4976V23.9981C13.2357 21.1474 14.3681 18.4134 16.3839 16.3976C18.3998 14.3818 21.1338 13.2494 23.9846 13.2494C26.8354 13.2494 29.5694 14.3818 31.5852 16.3976C33.601 18.4134 34.7335 21.1473 34.7335 23.9979C34.7335 23.998 34.7335 23.9979 34.7335 23.9979L34.7344 27.7466C34.7344 27.747 34.7344 27.7474 34.7344 27.7478C34.7344 27.7479 34.7344 27.7478 34.7344 27.7478V31.4976C34.7344 33.2923 33.2795 34.7472 31.4848 34.7472H30.2349C28.4401 34.7472 26.9852 33.2923 26.9852 31.4976V27.748C26.9852 25.9533 28.4401 24.4984 30.2349 24.4984H31.4848C32.1287 24.4984 32.729 24.6857 33.2339 25.0088L33.2337 23.9983C33.2337 21.5453 32.2592 19.1927 30.5247 17.4582C28.7901 15.7236 26.4376 14.7492 23.9846 14.7492ZM33.2346 27.747C33.234 26.7811 32.4508 25.9982 31.4848 25.9982H30.2349C29.2685 25.9982 28.4851 26.7816 28.4851 27.748V31.4976C28.4851 32.464 29.2685 33.2474 30.2349 33.2474H31.4848C32.4512 33.2474 33.2346 32.464 33.2346 31.4976V27.7482C33.2346 27.7478 33.2346 27.7473 33.2346 27.747ZM14.7355 27.748V31.4976C14.7355 32.464 15.5189 33.2474 16.4853 33.2474H17.7352C18.7016 33.2474 19.485 32.464 19.485 31.4976V27.748C19.485 26.7816 18.7016 25.9982 17.7352 25.9982H16.4853C15.5189 25.9982 14.7355 26.7816 14.7355 27.748Z" fill="black"/>
</svg>
