<svg width="40" height="40" viewBox="0 0 40 40" fill="none" xmlns="http://www.w3.org/2000/svg">
  <path d="M0 8C0 3.58172 3.58172 0 8 0H32C36.4183 0 40 3.58172 40 8V32C40 36.4183 36.4183 40 32 40H8C3.58172 40 0 36.4183 0 32V8Z" fill="white"/>
  <path d="M15.3218 31.9154L15.7649 29.1012L14.7779 29.0784H10.0653L13.3403 8.31246C13.3501 8.24901 13.3823 8.19117 13.4311 8.1495C13.48 8.10782 13.5422 8.08508 13.6063 8.08542H21.5525C24.1905 8.08542 26.011 8.63437 26.9615 9.71786C27.4071 10.2261 27.6909 10.7573 27.8281 11.3418C27.9721 11.9552 27.9747 12.6879 27.834 13.5817L27.8239 13.6469V14.2196L28.2695 14.472C28.6096 14.6443 28.9154 14.8775 29.1717 15.1599C29.5529 15.5945 29.7994 16.1468 29.9036 16.8016C30.0112 17.4751 29.9756 18.2765 29.7994 19.1838C29.5961 20.2275 29.2674 21.1364 28.8235 21.8802C28.4318 22.5465 27.9052 23.1236 27.2775 23.5745C26.6879 23.993 25.9873 24.3107 25.1952 24.514C24.4277 24.7139 23.5526 24.8147 22.5928 24.8147H21.9744C21.5322 24.8147 21.1027 24.974 20.7655 25.2595C20.4288 25.548 20.2055 25.9467 20.1352 26.3845L20.0886 26.6378L19.3059 31.5977L19.2703 31.7799C19.261 31.8375 19.2449 31.8663 19.2212 31.8858C19.1982 31.9046 19.1695 31.915 19.1399 31.9154H15.3218Z" fill="#253B80"/>
  <path d="M28.6914 13.713C28.6677 13.8646 28.6406 14.0196 28.6101 14.1789C27.5622 19.5591 23.9771 21.4177 19.3983 21.4177H17.067C16.507 21.4177 16.0351 21.8243 15.9479 22.3766L14.7543 29.9467L14.4163 32.0925C14.4028 32.1776 14.4079 32.2646 14.4313 32.3476C14.4547 32.4305 14.4958 32.5074 14.5518 32.5729C14.6077 32.6384 14.6772 32.6911 14.7555 32.7272C14.8337 32.7633 14.9188 32.782 15.005 32.782H19.1399C19.6296 32.782 20.0455 32.4263 20.1226 31.9434L20.1632 31.7333L20.9418 26.7928L20.9917 26.5217C21.068 26.0371 21.4848 25.6813 21.9744 25.6813H22.5928C26.599 25.6813 29.7351 24.0548 30.6517 19.3481C31.0346 17.3819 30.8363 15.7402 29.8232 14.5855C29.502 14.2283 29.1185 13.9326 28.6914 13.713Z" fill="#179BD7"/>
  <path d="M27.5952 13.2758C27.2606 13.1791 26.9202 13.1035 26.5761 13.0497C25.8961 12.9452 25.2089 12.895 24.5209 12.8997H18.2928C18.0557 12.8995 17.8265 12.9842 17.6464 13.1383C17.4663 13.2924 17.3473 13.5059 17.3109 13.7401L15.986 22.1318L15.9479 22.3767C15.9892 22.1095 16.1247 21.866 16.3299 21.6901C16.5352 21.5142 16.7966 21.4176 17.0669 21.4177H19.3983C23.9771 21.4177 27.5621 19.5582 28.6101 14.1789C28.6414 14.0196 28.6677 13.8646 28.6914 13.713C28.4149 13.568 28.1267 13.4464 27.8298 13.3495C27.752 13.3237 27.6738 13.2992 27.5952 13.2758Z" fill="#222D65"/>
  <path d="M17.3109 13.7401C17.347 13.5058 17.466 13.2922 17.6461 13.1382C17.8263 12.9841 18.0557 12.8998 18.2928 12.9006H24.5209C25.2588 12.9006 25.9475 12.9488 26.5761 13.0505C27.0014 13.1174 27.4209 13.2173 27.8307 13.3495C28.1399 13.452 28.4271 13.5732 28.6922 13.713C29.004 11.7247 28.6897 10.371 27.6147 9.1452C26.4295 7.79571 24.2905 7.21796 21.5534 7.21796H13.6072C13.0481 7.21796 12.5712 7.62458 12.4848 8.17776L9.17502 29.1572C9.1596 29.2546 9.16547 29.3541 9.19221 29.4491C9.21896 29.544 9.26594 29.632 9.32994 29.707C9.39394 29.782 9.47343 29.8423 9.56295 29.8837C9.65246 29.9251 9.74988 29.9466 9.8485 29.9467H14.7543L15.986 22.1318L17.3109 13.7401Z" fill="#253B80"/>
  <path d="M8 0.833333H32V-0.833333H8V0.833333ZM39.1667 8V32H40.8333V8H39.1667ZM32 39.1667H8V40.8333H32V39.1667ZM0.833333 32V8H-0.833333V32H0.833333ZM8 39.1667C4.04196 39.1667 0.833333 35.958 0.833333 32H-0.833333C-0.833333 36.8785 3.12148 40.8333 8 40.8333V39.1667ZM39.1667 32C39.1667 35.958 35.958 39.1667 32 39.1667V40.8333C36.8785 40.8333 40.8333 36.8785 40.8333 32H39.1667ZM32 0.833333C35.958 0.833333 39.1667 4.04196 39.1667 8H40.8333C40.8333 3.12148 36.8785 -0.833333 32 -0.833333V0.833333ZM8 -0.833333C3.12148 -0.833333 -0.833333 3.12148 -0.833333 8H0.833333C0.833333 4.04196 4.04196 0.833333 8 0.833333V-0.833333Z" fill="#EBEEF1"/>
</svg>
