<svg width="48" height="48" viewBox="0 0 48 48" fill="none" xmlns="http://www.w3.org/2000/svg">
<path d="M0 8C0 3.58172 3.58172 0 8 0H40C44.4183 0 48 3.58172 48 8V40C48 44.4183 44.4183 48 40 48H8C3.58172 48 0 44.4183 0 40V8Z" fill="#E60022"/>
<g clip-path="url(#clip0_26_353)">
<path d="M9 24.0002C9 30.1425 12.6935 35.4192 17.9788 37.7392C17.9366 36.6918 17.9713 35.4343 18.2399 34.2947C18.5283 33.077 20.17 26.1211 20.17 26.1211C20.17 26.1211 19.6908 25.1633 19.6908 23.7478C19.6908 21.5249 20.9791 19.8647 22.5837 19.8647C23.9481 19.8647 24.6073 20.8895 24.6073 22.1167C24.6073 23.4882 23.7325 25.5398 23.2826 27.44C22.9068 29.0312 24.0804 30.3291 25.6501 30.3291C28.4921 30.3291 30.4063 26.6788 30.4063 22.3539C30.4063 19.0663 28.192 16.6056 24.1646 16.6056C19.6145 16.6056 16.7798 19.9989 16.7798 23.7892C16.7798 25.0961 17.1652 26.0176 17.7687 26.7313C18.0462 27.0591 18.0847 27.1909 17.9843 27.5673C17.9123 27.8433 17.7471 28.5077 17.6787 28.7711C17.5788 29.151 17.271 29.2868 16.9276 29.1465C14.8318 28.2909 13.8558 25.9958 13.8558 23.4158C13.8558 19.1548 17.4495 14.0454 24.5763 14.0454C30.3033 14.0454 34.0726 18.1896 34.0726 22.6382C34.0726 28.5225 30.8012 32.9186 25.9789 32.9186C24.3595 32.9186 22.8362 32.0432 22.3144 31.0488C22.3144 31.0488 21.4436 34.5049 21.2591 35.1723C20.9411 36.3288 20.3186 37.4848 19.7494 38.3857C21.0984 38.7839 22.5236 39.0008 24.0006 39.0008C32.2839 39.0008 39.0001 32.2849 39.0001 24.0002C39.0001 15.7159 32.2839 9 24.0006 9C15.7165 9 9 15.7159 9 24.0002Z" fill="white"/>
</g>
<defs>
<clipPath id="clip0_26_353">
<rect width="30" height="30" fill="white" transform="translate(9 9)"/>
</clipPath>
</defs>
</svg>
