<svg width="40" height="40" viewBox="0 0 40 40" fill="none" xmlns="http://www.w3.org/2000/svg">
<path d="M0 8C0 3.58172 3.58172 0 8 0H32C36.4183 0 40 3.58172 40 8V32C40 36.4183 36.4183 40 32 40H8C3.58172 40 0 36.4183 0 32V8Z" fill="#FD430F"/>
<path d="M34.0058 20.2007C34.0058 18.4939 32.6256 17.1385 30.9436 17.1385C30.1155 17.1385 29.3622 17.4646 28.8101 17.9919C26.7019 16.4859 23.8152 15.5071 20.6023 15.3817L22.0078 8.80535L26.5761 9.78413C26.6266 10.9388 27.5801 11.8675 28.7601 11.8675C29.9648 11.8675 30.9436 10.8888 30.9436 9.68353C30.9436 8.47878 29.9648 7.5 28.7601 7.5C27.9067 7.5 27.1534 8.00202 26.8021 8.73002L21.707 7.65065C21.5563 7.62539 21.4057 7.65065 21.3051 7.72598C21.1797 7.80131 21.1044 7.92669 21.0796 8.07735L19.523 15.4065C16.2601 15.5071 13.3233 16.4859 11.1898 18.0172C10.6377 17.4899 9.88445 17.1638 9.05633 17.1638C7.34955 17.1638 5.99414 18.544 5.99414 20.226C5.99414 21.4808 6.74694 22.5349 7.80151 23.0121C7.75098 23.313 7.72618 23.6143 7.72618 23.9408C7.72618 28.6593 13.2232 32.5 20.0002 32.5C26.7773 32.5 32.2742 28.6845 32.2742 23.9408C32.2742 23.6395 32.249 23.313 32.1989 23.0121C33.253 22.5349 34.0058 21.4555 34.0058 20.2007ZM12.9719 22.3842C12.9719 21.1795 13.9507 20.2007 15.1559 20.2007C16.3607 20.2007 17.3394 21.1795 17.3394 22.3842C17.3394 23.589 16.3607 24.5683 15.1559 24.5683C13.9507 24.593 12.9719 23.589 12.9719 22.3842ZM25.1959 28.1825C23.6898 29.6886 20.8283 29.7892 20.0002 29.7892C19.1468 29.7892 16.2853 29.6633 14.8041 28.1825C14.5786 27.9565 14.5786 27.6052 14.8041 27.3792C15.0301 27.1537 15.3814 27.1537 15.6074 27.3792C16.5614 28.3332 18.5695 28.6593 20.0002 28.6593C21.4309 28.6593 23.4638 28.3332 24.3925 27.3792C24.6185 27.1537 24.9699 27.1537 25.1959 27.3792C25.3966 27.6052 25.3966 27.9565 25.1959 28.1825ZM24.794 24.5931C23.5892 24.5931 22.6104 23.6143 22.6104 22.4095C22.6104 21.2048 23.5892 20.226 24.794 20.226C25.9992 20.226 26.978 21.2048 26.978 22.4095C26.978 23.589 25.9992 24.5931 24.794 24.5931Z" fill="white"/>
</svg>
