<svg width="48" height="48" viewBox="0 0 48 48" fill="none" xmlns="http://www.w3.org/2000/svg">
<rect width="48" height="48" rx="8" fill="#061492"/>
<path fill-rule="evenodd" clip-rule="evenodd" d="M17.3114 16.749C15.8847 16.749 14.7282 17.9055 14.7282 19.332V28.22C14.7282 29.6466 15.8847 30.803 17.3114 30.803H30.6435C32.0701 30.803 33.2266 29.6466 33.2266 28.22V19.332C33.2266 17.9055 32.0701 16.749 30.6435 16.749H17.3114ZM13.2284 19.332C13.2284 17.0771 15.0564 15.2492 17.3114 15.2492H30.6435C32.8984 15.2492 34.7265 17.0771 34.7265 19.332V28.22C34.7265 30.4749 32.8984 32.3029 30.6435 32.3029H17.3114C15.0564 32.3029 13.2284 30.4749 13.2284 28.22V19.332Z" fill="white"/>
<path fill-rule="evenodd" clip-rule="evenodd" d="M13.2284 21.5548C13.2284 21.1407 13.5641 20.8049 13.9783 20.8049H33.9765C34.3907 20.8049 34.7265 21.1407 34.7265 21.5548C34.7265 21.969 34.3907 22.3047 33.9765 22.3047H13.9783C13.5641 22.3047 13.2284 21.969 13.2284 21.5548Z" fill="white"/>
<path fill-rule="evenodd" clip-rule="evenodd" d="M17.6716 27.1095C17.6716 26.6954 18.0074 26.3596 18.4216 26.3596H22.8656C23.2798 26.3596 23.6155 26.6954 23.6155 27.1095C23.6155 27.5237 23.2798 27.8594 22.8656 27.8594H18.4216C18.0074 27.8594 17.6716 27.5237 17.6716 27.1095Z" fill="white"/>
</svg>
