<svg width="48" height="48" viewBox="0 0 48 48" fill="none" xmlns="http://www.w3.org/2000/svg">
<path d="M0 8C0 3.58172 3.58172 0 8 0H40C44.4183 0 48 3.58172 48 8V40C48 44.4183 44.4183 48 40 48H8C3.58172 48 0 44.4183 0 40V8Z" fill="#1BD760"/>
<g clip-path="url(#clip0_6_514)">
<path d="M23.9991 8.05276C15.41 8.05276 8.44678 15.1943 8.44678 24.0036C8.44678 32.8133 15.41 39.9543 23.9991 39.9543C32.5891 39.9543 39.5515 32.8133 39.5515 24.0036C39.5515 15.1949 32.5891 8.05353 23.9989 8.05353L23.9991 8.05276ZM31.1312 31.0585C30.8527 31.5271 30.2547 31.6756 29.7978 31.388C26.1463 29.1004 21.5495 28.5823 16.1359 29.8509C15.6142 29.9728 15.0942 29.6375 14.9754 29.1023C14.856 28.5671 15.1815 28.0337 15.7045 27.9118C21.6288 26.5231 26.7105 27.1213 30.8099 29.6909C31.2668 29.9785 31.4117 30.5899 31.1312 31.0585ZM33.0348 26.7147C32.6838 27.3004 31.9372 27.4851 31.3671 27.1251C27.1867 24.4891 20.8142 23.7259 15.8696 25.2653C15.2283 25.464 14.551 25.0933 14.3564 24.4368C14.1632 23.7791 14.5248 23.0857 15.165 22.8857C20.8131 21.128 27.8348 21.9794 32.6355 25.0051C33.2057 25.3651 33.3858 26.1309 33.0348 26.7149V26.7147ZM33.1982 22.192C28.1858 19.1385 19.9159 18.8577 15.1303 20.3474C14.3618 20.5865 13.5491 20.1415 13.3162 19.3533C13.0833 18.5648 13.5168 17.7318 14.2858 17.4922C19.7794 15.7817 28.9119 16.1122 34.6828 19.6259C35.3755 20.0467 35.6021 20.9623 35.1917 21.6703C34.7831 22.3792 33.888 22.613 33.199 22.192H33.1982Z" fill="black"/>
</g>
<defs>
<clipPath id="clip0_6_514">
<rect width="31.2" height="32" fill="white" transform="translate(8.3999 8)"/>
</clipPath>
</defs>
</svg>
