<svg width="48" height="48" viewBox="0 0 48 48" fill="none" xmlns="http://www.w3.org/2000/svg">
  <path d="M0 8C0 3.58172 3.58172 0 8 0H40C44.4183 0 48 3.58172 48 8V40C48 44.4183 44.4183 48 40 48H8C3.58172 48 0 44.4183 0 40V8Z" fill="black"/>
  <path d="M20.1333 37C18.0643 37 15.1449 36.396 12.2273 33.7707L14.5163 31.2264C18.6066 34.9082 22.8695 33.4538 24.1848 32.2247C24.2764 32.1385 24.3609 32.0487 24.4507 31.9659C20.1509 31.5468 16.9938 28.4883 16.7772 28.2788C13.4775 25.0301 12.7274 20.6176 15.0763 18.2423C17.4252 15.867 21.8395 16.5149 25.141 19.7601C25.4332 20.0365 28.6467 23.1901 29.2806 27.1906C30.2306 26.4825 31.0026 25.5627 31.5353 24.5043C32.068 23.4459 32.3468 22.2779 32.3496 21.093C32.3577 20.0897 32.1631 19.0951 31.7773 18.1689C31.3915 17.2428 30.8226 16.4041 30.1046 15.7032C28.6027 14.2259 26.4756 13.423 24.132 13.423V10C27.3701 10 30.3406 11.1516 32.4905 13.2416C33.5389 14.2613 34.3701 15.4825 34.9341 16.8318C35.4982 18.1811 35.7834 19.6306 35.7726 21.093C35.7678 23.2856 35.1112 25.4272 33.8863 27.2457C32.6613 29.0641 30.9233 30.4773 28.8932 31.3056C28.3795 32.614 27.5681 33.7848 26.5232 34.7251C25.4332 35.7446 23.2992 36.8732 20.5823 36.9877C20.4379 36.9959 20.2882 37 20.1333 37ZM18.6929 20.2126C18.4774 20.1984 18.2613 20.2284 18.0578 20.3008C17.8544 20.3732 17.6678 20.4864 17.5097 20.6334C16.6751 21.4909 17.2068 23.8997 19.1807 25.8471C19.2088 25.8735 22.299 28.8704 25.9562 28.564C25.972 25.3312 22.7973 22.2674 22.7639 22.2375L22.7428 22.2146C21.5806 21.0613 19.9149 20.2126 18.6929 20.2126Z" fill="white"/>
</svg>
