<svg width="40" height="40" viewBox="0 0 40 40" fill="none" xmlns="http://www.w3.org/2000/svg">
  <path d="M0 8C0 3.58172 3.58172 0 8 0H32C36.4183 0 40 3.58172 40 8V32C40 36.4183 36.4183 40 32 40H8C3.58172 40 0 36.4183 0 32V8Z" fill="black"/>
  <path fill-rule="evenodd" clip-rule="evenodd" d="M12.2317 8.33334H27.7672C28.8014 8.33304 29.7935 8.74368 30.5249 9.4749C31.2563 10.2061 31.6673 11.198 31.6673 12.2322V27.7666C31.6673 29.9206 29.9211 31.6667 27.7672 31.6667H12.2317C10.0782 31.666 8.33276 29.9202 8.33276 27.7666V12.2322C8.33276 10.0789 10.0784 8.33334 12.2317 8.33334ZM26.197 27.4248C26.8766 27.4248 27.4276 26.8738 27.4276 26.1942L27.4242 13.8069C27.4242 13.1273 26.8732 12.5764 26.1936 12.5764H13.8075C13.4809 12.5764 13.1678 12.7062 12.937 12.9372C12.7062 13.1682 12.5766 13.4815 12.5769 13.8081V26.1942C12.5769 26.8738 13.1279 27.4248 13.8075 27.4248H26.197Z" fill="white"/>
  <path d="M17.524 23.1636C17.1361 23.1605 16.8232 22.8452 16.8233 22.4572V17.5123C16.8223 17.3243 16.8964 17.1438 17.029 17.0106C17.1615 16.8773 17.3417 16.8025 17.5297 16.8025H22.4814C22.6693 16.8028 22.8493 16.8777 22.9818 17.0109C23.1143 17.144 23.1884 17.3244 23.1878 17.5123V22.4561C23.1884 22.6439 23.1143 22.8243 22.9818 22.9574C22.8493 23.0906 22.6693 23.1656 22.4814 23.1659L17.524 23.1636Z" fill="white"/>
</svg>
