<svg width="48" height="48" viewBox="0 0 48 48" fill="none" xmlns="http://www.w3.org/2000/svg">
<rect width="48" height="48" rx="8" fill="#02ACC4"/>
<path d="M26.1563 35.0001C26.1563 35.4971 26.5593 35.9001 27.0563 35.9001C27.5534 35.9001 27.9563 35.4971 27.9563 35.0001H26.1563ZM20.0453 35.0001C20.0453 35.4971 20.4482 35.9001 20.9453 35.9001C21.4423 35.9001 21.8453 35.4971 21.8453 35.0001H20.0453ZM16.0311 34.4137L15.3947 35.0501H15.3947L16.0311 34.4137ZM31.9705 34.4137L32.6069 35.0501L31.9705 34.4137ZM25.9387 22.7438L25.7736 23.6285L25.9387 22.7438ZM24.2596 20.6679L25.1474 20.52L24.2596 20.6679ZM24.4265 21.4627L23.5809 21.771L24.4265 21.4627ZM23.7406 20.6679L22.8529 20.52L23.7406 20.6679ZM23.5738 21.4627L24.4194 21.771L23.5738 21.4627ZM22.0616 22.7438L22.2266 23.6285L22.0616 22.7438ZM29.2406 20.6679L30.1284 20.8159V20.8159L29.2406 20.6679ZM29.0737 21.4627L29.9193 21.771L29.0737 21.4627ZM27.5615 22.7438L27.7266 23.6285L27.5615 22.7438ZM18.7596 20.6679L19.6474 20.52L18.7596 20.6679ZM18.9265 21.4627L18.0809 21.771L18.9265 21.4627ZM20.4387 22.7438L20.2737 23.6285L20.4387 22.7438ZM18.3403 20.07L17.4526 19.922L18.3403 20.07ZM18.4493 19.6333L18.9072 20.408L18.4493 19.6333ZM18.66 20.07L17.7722 20.2179L18.66 20.07ZM18.551 19.6333L18.0931 20.408L18.551 19.6333ZM30.961 22.5907L31.341 21.7748L30.961 22.5907ZM29.6599 20.07L30.5476 19.922L29.6599 20.07ZM30.156 21.9087L29.4137 22.4177L30.156 21.9087ZM29.551 19.6333L29.093 20.408L29.551 19.6333ZM29.3403 20.07L28.4525 19.922V19.922L29.3403 20.07ZM29.4492 19.6333L29.9071 20.408L29.4492 19.6333ZM17.0393 22.5907L16.6593 21.7748L17.0393 22.5907ZM17.8443 21.9087L18.5865 22.4177L17.8443 21.9087ZM23.8403 20.07L24.7281 20.2179L23.8403 20.07ZM23.9492 19.6333L24.4072 20.408L23.9492 19.6333ZM24.1599 20.07L23.2722 20.2179L24.1599 20.07ZM24.051 19.6333L23.5931 20.408L24.051 19.6333ZM13.5107 20.7358L12.6375 20.5176L13.5107 20.7358ZM13.3379 22.1103L12.4892 22.4096L13.3379 22.1103ZM13.7296 22.6119L14.2258 21.8611L13.7296 22.6119ZM34.4896 20.7358L33.6164 20.9541L34.4896 20.7358ZM34.6623 22.1103L35.5111 22.4096L34.6623 22.1103ZM34.2707 22.6119L33.7744 21.8611L34.2707 22.6119ZM32.9343 14.5149L33.8075 14.2966L32.9343 14.5149ZM15.0659 14.5149L15.939 14.7332L15.0659 14.5149ZM21.9453 28.5668H26.0563V26.7668H21.9453V28.5668ZM26.1563 28.6668V35.0001H27.9563V28.6668H26.1563ZM20.0453 28.6668V35.0001H21.8453V28.6668H20.0453ZM26.0563 28.5668C26.1116 28.5668 26.1563 28.6116 26.1563 28.6668H27.9563C27.9563 27.6175 27.1057 26.7668 26.0563 26.7668V28.5668ZM21.9453 26.7668C20.8959 26.7668 20.0453 27.6175 20.0453 28.6668H21.8453C21.8453 28.6116 21.89 28.5668 21.9453 28.5668V26.7668ZM31.6563 22.7774V30.9995H33.4563V22.7774H31.6563ZM28.5563 34.0995H19.4453V35.8995H28.5563V34.0995ZM16.3453 30.9995V22.7774H14.5453V30.9995H16.3453ZM19.4453 34.0995C18.4771 34.0995 17.8414 34.0976 17.3707 34.0343C16.9259 33.9745 16.7653 33.8751 16.6675 33.7773L15.3947 35.0501C15.8827 35.5381 16.4864 35.7316 17.1309 35.8182C17.7494 35.9014 18.528 35.8995 19.4453 35.8995V34.0995ZM14.5453 30.9995C14.5453 31.9168 14.5434 32.6954 14.6266 33.3139C14.7132 33.9584 14.9067 34.5621 15.3947 35.0501L16.6675 33.7773C16.5697 33.6795 16.4703 33.5189 16.4105 33.0741C16.3472 32.6034 16.3453 31.9677 16.3453 30.9995H14.5453ZM31.6563 30.9995C31.6563 31.9677 31.6544 32.6034 31.5911 33.0741C31.5313 33.5189 31.4319 33.6795 31.3341 33.7773L32.6069 35.0501C33.0949 34.5621 33.2884 33.9584 33.375 33.3139C33.4582 32.6954 33.4563 31.9168 33.4563 30.9995H31.6563ZM28.5563 35.8995C29.4737 35.8995 30.2522 35.9014 30.8708 35.8182C31.5152 35.7316 32.1189 35.5381 32.6069 35.0501L31.3341 33.7773C31.2363 33.8751 31.0757 33.9745 30.6309 34.0343C30.1602 34.0976 29.5245 34.0995 28.5563 34.0995V35.8995ZM17.0062 13.9H30.9941V12.1H17.0062V13.9ZM32.0612 14.7332L33.6164 20.9541L35.3627 20.5176L33.8075 14.2966L32.0612 14.7332ZM14.3838 20.9541L15.939 14.7332L14.1928 14.2966L12.6375 20.5176L14.3838 20.9541ZM19.6474 20.52L19.5477 19.922L17.7722 20.2179L17.8719 20.8159L19.6474 20.52ZM28.4525 19.922L28.3528 20.52L30.1284 20.8159L30.228 20.2179L28.4525 19.922ZM22.9525 19.922L22.8529 20.52L24.6284 20.8159L24.7281 20.2179L22.9525 19.922ZM25.1474 20.52L25.0477 19.922L23.2722 20.2179L23.3718 20.8159L25.1474 20.52ZM26.7501 21.8777C26.292 21.8777 26.1836 21.8739 26.1037 21.859L25.7736 23.6285C26.0575 23.6815 26.3688 23.6777 26.7501 23.6777V21.8777ZM23.3718 20.8159C23.4345 21.192 23.482 21.4997 23.5809 21.771L25.272 21.1545C25.2442 21.0782 25.2227 20.9719 25.1474 20.52L23.3718 20.8159ZM26.1037 21.859C25.7214 21.7877 25.4052 21.5198 25.272 21.1545L23.5809 21.771C23.9321 22.7342 24.7658 23.4405 25.7736 23.6285L26.1037 21.859ZM22.8529 20.52C22.7776 20.9719 22.756 21.0782 22.7282 21.1545L24.4194 21.771C24.5182 21.4997 24.5657 21.192 24.6284 20.8159L22.8529 20.52ZM21.2501 23.6777C21.6315 23.6777 21.9428 23.6815 22.2266 23.6285L21.8965 21.859C21.8167 21.8739 21.7083 21.8777 21.2501 21.8777V23.6777ZM22.7282 21.1545C22.595 21.5198 22.2788 21.7877 21.8965 21.859L22.2266 23.6285C23.2345 23.4405 24.0682 22.7342 24.4194 21.771L22.7282 21.1545ZM28.3528 20.52C28.2775 20.9719 28.256 21.0782 28.2282 21.1545L29.9193 21.771C30.0182 21.4997 30.0657 21.192 30.1284 20.8159L28.3528 20.52ZM26.7501 23.6777C27.1314 23.6777 27.4427 23.6815 27.7266 23.6285L27.3965 21.859C27.3166 21.8739 27.2082 21.8777 26.7501 21.8777V23.6777ZM28.2282 21.1545C28.095 21.5198 27.7788 21.7877 27.3965 21.859L27.7266 23.6285C28.7344 23.4405 29.5681 22.7342 29.9193 21.771L28.2282 21.1545ZM17.8719 20.8159C17.9346 21.192 17.982 21.4997 18.0809 21.771L19.7721 21.1545C19.7442 21.0782 19.7227 20.9719 19.6474 20.52L17.8719 20.8159ZM21.2501 21.8777C20.792 21.8777 20.6836 21.8739 20.6038 21.859L20.2737 23.6285C20.5575 23.6815 20.8688 23.6777 21.2501 23.6777V21.8777ZM18.0809 21.771C18.4321 22.7342 19.2658 23.4405 20.2737 23.6285L20.6038 21.859C20.2215 21.7877 19.9053 21.5198 19.7721 21.1545L18.0809 21.771ZM19.2281 20.2179C19.2398 20.1477 19.249 20.0926 19.2572 20.0462C19.2656 19.9988 19.271 19.9725 19.2742 19.9586C19.2789 19.938 19.2737 19.9678 19.2533 20.0171C19.2425 20.0433 19.2184 20.0971 19.1746 20.1603C19.1319 20.2219 19.0482 20.3247 18.9072 20.408L17.9913 18.8585C17.7146 19.022 17.6124 19.2751 17.5903 19.3284C17.5528 19.4188 17.5316 19.5047 17.5198 19.5558C17.4957 19.6609 17.4734 19.7974 17.4526 19.922L19.2281 20.2179ZM19.5477 19.922C19.527 19.7974 19.5046 19.6609 19.4805 19.5558C19.4688 19.5047 19.4475 19.4188 19.41 19.3284C19.388 19.2751 19.2857 19.022 19.009 18.8585L18.0931 20.408C17.9522 20.3247 17.8684 20.2219 17.8257 20.1603C17.7819 20.0971 17.7579 20.0433 17.747 20.0171C17.7266 19.9678 17.7214 19.938 17.7262 19.9586C17.7293 19.9725 17.7347 19.9988 17.7431 20.0462C17.7513 20.0926 17.7605 20.1477 17.7722 20.2179L19.5477 19.922ZM18.9072 20.408C18.6561 20.5564 18.3442 20.5564 18.0931 20.408L19.009 18.8585C18.6951 18.673 18.3052 18.673 17.9913 18.8585L18.9072 20.408ZM32.8784 21.8777C32.3592 21.8777 32.0207 21.8771 31.7605 21.857C31.5113 21.8377 31.4045 21.8044 31.341 21.7748L30.581 23.4065C30.919 23.5639 31.2656 23.6241 31.622 23.6516C31.9675 23.6783 32.387 23.6777 32.8784 23.6777V21.8777ZM28.7721 20.2179C28.8517 20.6953 28.9192 21.1041 29.0019 21.4374C29.0874 21.7821 29.2036 22.1113 29.4137 22.4177L30.8982 21.3998C30.8578 21.3408 30.8079 21.2418 30.7489 21.004C30.6871 20.7548 30.6318 20.427 30.5476 19.922L28.7721 20.2179ZM31.341 21.7748C31.1625 21.6917 31.0096 21.5622 30.8982 21.3998L29.4137 22.4177C29.7073 22.8458 30.1104 23.1873 30.581 23.4065L31.341 21.7748ZM30.5476 19.922C30.5269 19.7974 30.5046 19.6609 30.4804 19.5558C30.4687 19.5047 30.4474 19.4188 30.41 19.3284C30.3879 19.2751 30.2857 19.0221 30.0089 18.8585L29.093 20.408C28.9521 20.3247 28.8683 20.2219 28.8256 20.1603C28.7819 20.0971 28.7578 20.0433 28.7469 20.0171C28.7265 19.9678 28.7213 19.938 28.7261 19.9586C28.7293 19.9725 28.7346 19.9988 28.743 20.0462C28.7512 20.0926 28.7604 20.1477 28.7721 20.2179L30.5476 19.922ZM30.228 20.2179C30.2397 20.1477 30.2489 20.0926 30.2571 20.0462C30.2656 19.9988 30.2709 19.9725 30.2741 19.9586C30.2788 19.938 30.2737 19.9678 30.2532 20.0171C30.2424 20.0433 30.2183 20.0972 30.1745 20.1603C30.1318 20.2219 30.0481 20.3247 29.9071 20.408L28.9912 18.8585C28.7145 19.022 28.6123 19.2751 28.5902 19.3284C28.5527 19.4188 28.5315 19.5047 28.5197 19.5558C28.4956 19.6609 28.4733 19.7974 28.4525 19.922L30.228 20.2179ZM30.0089 18.8585C29.6951 18.673 29.3051 18.673 28.9912 18.8585L29.9071 20.408C29.6561 20.5564 29.3441 20.5564 29.093 20.408L30.0089 18.8585ZM15.1219 23.6777C15.6133 23.6777 16.0328 23.6783 16.3782 23.6516C16.7346 23.6241 17.0813 23.5639 17.4193 23.4065L16.6593 21.7748C16.5957 21.8044 16.489 21.8377 16.2397 21.857C15.9795 21.8771 15.641 21.8777 15.1219 21.8777V23.6777ZM17.4526 19.922C17.3684 20.427 17.3131 20.7548 17.2513 21.004C17.1924 21.2418 17.1424 21.3408 17.102 21.3998L18.5865 22.4177C18.7966 22.1113 18.9129 21.7821 18.9984 21.4374C19.081 21.1041 19.1485 20.6953 19.2281 20.2179L17.4526 19.922ZM17.4193 23.4065C17.8899 23.1873 18.293 22.8458 18.5865 22.4177L17.102 21.3998C16.9907 21.5622 16.8378 21.6917 16.6593 21.7748L17.4193 23.4065ZM24.7281 20.2179C24.7398 20.1477 24.749 20.0926 24.7572 20.0462C24.7656 19.9988 24.7709 19.9725 24.7741 19.9586C24.7789 19.938 24.7737 19.9678 24.7533 20.0171C24.7424 20.0433 24.7183 20.0971 24.6746 20.1603C24.6319 20.2219 24.5481 20.3247 24.4072 20.408L23.4913 18.8585C23.2145 19.022 23.1123 19.2751 23.0902 19.3284C23.0528 19.4188 23.0315 19.5047 23.0198 19.5558C22.9956 19.6609 22.9733 19.7974 22.9525 19.922L24.7281 20.2179ZM25.0477 19.922C25.0269 19.7974 25.0046 19.6609 24.9805 19.5558C24.9687 19.5047 24.9474 19.4188 24.91 19.3284C24.8879 19.2751 24.7857 19.022 24.509 18.8585L23.5931 20.408C23.4521 20.3247 23.3684 20.2219 23.3256 20.1603C23.2819 20.0972 23.2578 20.0433 23.247 20.0171C23.2265 19.9678 23.2214 19.938 23.2261 19.9586C23.2293 19.9725 23.2346 19.9988 23.2431 20.0462C23.2513 20.0926 23.2605 20.1477 23.2722 20.2179L25.0477 19.922ZM24.4072 20.408C24.1561 20.5564 23.8441 20.5564 23.5931 20.408L24.509 18.8585C24.1951 18.673 23.8051 18.673 23.4913 18.8585L24.4072 20.408ZM12.6375 20.5176C12.5509 20.864 12.4696 21.1852 12.4288 21.4545C12.3868 21.7315 12.3675 22.0648 12.4892 22.4096L14.1867 21.811C14.2083 21.8723 14.1845 21.882 14.2084 21.7245C14.2335 21.5592 14.2886 21.335 14.3838 20.9541L12.6375 20.5176ZM15.1219 21.8777C14.7238 21.8777 14.488 21.8768 14.3182 21.8609C14.1546 21.8456 14.17 21.8242 14.2258 21.8611L13.2333 23.3628C13.54 23.5654 13.871 23.6269 14.1506 23.6531C14.4239 23.6786 14.759 23.6777 15.1219 23.6777V21.8777ZM12.4892 22.4096C12.6268 22.7999 12.8881 23.1346 13.2333 23.3628L14.2258 21.8611C14.2077 21.8491 14.1939 21.8315 14.1867 21.811L12.4892 22.4096ZM33.6164 20.9541C33.7117 21.335 33.7667 21.5592 33.7918 21.7245C33.8157 21.882 33.7919 21.8723 33.8136 21.811L35.5111 22.4096C35.6327 22.0648 35.6135 21.7315 35.5714 21.4545C35.5306 21.1852 35.4493 20.864 35.3627 20.5176L33.6164 20.9541ZM32.8784 23.6777C33.2413 23.6777 33.5763 23.6786 33.8496 23.6531C34.1292 23.6269 34.4603 23.5654 34.7669 23.3628L33.7744 21.8611C33.8303 21.8242 33.8456 21.8456 33.6821 21.8609C33.5122 21.8768 33.2765 21.8777 32.8784 21.8777V23.6777ZM33.8136 21.811C33.8063 21.8315 33.7926 21.8491 33.7744 21.8611L34.7669 23.3628C35.1121 23.1346 35.3734 22.7999 35.5111 22.4096L33.8136 21.811ZM30.9941 13.9C31.3909 13.9 31.6092 13.9015 31.7648 13.9201C31.8964 13.9358 31.878 13.9537 31.8364 13.9212L32.9441 12.5024C32.6312 12.2581 32.2897 12.1701 31.9785 12.1328C31.6914 12.0985 31.3471 12.1 30.9941 12.1V13.9ZM33.8075 14.2966C33.7218 13.9541 33.6398 13.6198 33.5368 13.3495C33.4253 13.0567 33.257 12.7467 32.9441 12.5024L31.8364 13.9212C31.7947 13.8887 31.8076 13.8665 31.8548 13.9904C31.9106 14.1368 31.965 14.3482 32.0612 14.7332L33.8075 14.2966ZM17.0062 12.1C16.6531 12.1 16.3089 12.0985 16.0217 12.1328C15.7105 12.1701 15.369 12.2581 15.0561 12.5024L16.1639 13.9212C16.1222 13.9537 16.1038 13.9358 16.2354 13.9201C16.3911 13.9015 16.6093 13.9 17.0062 13.9V12.1ZM15.939 14.7332C16.0353 14.3482 16.0897 14.1368 16.1455 13.9904C16.1927 13.8665 16.2055 13.8887 16.1639 13.9212L15.0561 12.5024C14.7432 12.7467 14.575 13.0567 14.4634 13.3495C14.3604 13.6198 14.2784 13.9541 14.1928 14.2966L15.939 14.7332Z" fill="white"/>
</svg>
