<svg width="96" height="96" viewBox="0 0 96 96" fill="none" xmlns="http://www.w3.org/2000/svg">
<g clip-path="url(#clip0_198_156337)">
<path d="M1 16C1 7.71572 7.71572 1 16 1H80C88.2843 1 95 7.71572 95 16V80C95 88.2843 88.2843 95 80 95H16C7.71572 95 1 88.2843 1 80V16Z" fill="white" stroke="#F0F2F4" stroke-width="2"/>
<g clip-path="url(#clip1_198_156337)">
<path d="M41.6763 41.807V39.3481C40.8325 39.2327 39.976 39.1616 39.1021 39.1616C28.5697 39.1616 20 47.7313 20 58.2653C20 64.7286 23.2285 70.4475 28.1557 73.9051C24.9762 70.4917 23.0262 65.9201 23.0262 60.898C23.0262 50.5157 31.3525 42.0487 41.6779 41.807H41.6763Z" fill="#25F4EE"/>
<path d="M42.1267 69.6225C46.8264 69.6225 50.6601 65.8836 50.8339 61.2266L50.8513 19.6343H58.4491C58.2911 18.7794 58.2042 17.9007 58.2042 17H47.8267L47.8093 58.5923C47.6355 63.2493 43.8018 66.9882 39.1021 66.9882C37.6419 66.9882 36.2655 66.6231 35.0551 65.9863C36.64 68.1844 39.2159 69.6225 42.1267 69.6225Z" fill="#25F4EE"/>
<path d="M72.643 33.7505V31.4386C69.7448 31.4386 67.0442 30.5774 64.7797 29.0999C66.7961 31.4149 69.5346 33.0853 72.643 33.7505Z" fill="#25F4EE"/>
<path d="M64.7812 29.0999C62.572 26.5636 61.2304 23.2529 61.2304 19.6326H58.4507C59.1823 23.5864 61.529 26.9792 64.7812 29.0999Z" fill="#FE2C55"/>
<path d="M39.1021 49.5406C34.2919 49.5406 30.3776 53.4549 30.3776 58.2652C30.3776 61.6153 32.2786 64.5261 35.0551 65.9863C34.02 64.5514 33.4038 62.7974 33.4038 60.8979C33.4038 56.0876 37.318 52.1733 42.1283 52.1733C43.0259 52.1733 43.8872 52.3218 44.7026 52.5763V41.9807C43.8587 41.8653 43.0022 41.7942 42.1283 41.7942C41.9766 41.7942 41.8281 41.8021 41.678 41.8053V49.942C40.8625 49.6876 40.0013 49.539 39.1037 49.539L39.1021 49.5406Z" fill="#FE2C55"/>
<path d="M72.6429 33.7507V41.8163C67.2622 41.8163 62.2749 40.0955 58.2042 37.1736V58.2652C58.2042 68.7992 49.6344 77.3673 39.1021 77.3673C35.0313 77.3673 31.2577 76.0842 28.1541 73.905C31.6433 77.6518 36.6147 80 42.1267 80C52.6606 80 61.2288 71.4303 61.2288 60.8979V39.8078C65.2995 42.7297 70.2868 44.4506 75.6676 44.4506V34.0715C74.6293 34.0715 73.618 33.9593 72.6429 33.7507Z" fill="#FE2C55"/>
<path d="M58.2043 58.265V37.1734C62.275 40.0953 67.2623 41.8162 72.6431 41.8162V33.7506C69.5347 33.0853 66.7961 31.4165 64.7797 29.0999C61.5275 26.9792 59.1809 23.5879 58.4492 19.6326H50.8514L50.834 61.2249C50.6601 65.8819 46.8264 69.6208 42.1268 69.6208C39.2159 69.6208 36.6401 68.1827 35.0551 65.9846C32.2786 64.5229 30.3776 61.612 30.3776 58.2635C30.3776 53.4532 34.2919 49.5389 39.1022 49.5389C39.9998 49.5389 40.861 49.6874 41.6764 49.9418V41.8051C31.351 42.0469 23.0247 50.5139 23.0247 60.8962C23.0247 65.9182 24.9747 70.4899 28.1542 73.9032C31.2562 76.0808 35.0314 77.3656 39.1022 77.3656C49.6346 77.3656 58.2043 68.7959 58.2043 58.2635V58.265Z" fill="black"/>
</g>
</g>
<defs>
<clipPath id="clip0_198_156337">
<rect width="96" height="96" fill="white"/>
</clipPath>
<clipPath id="clip1_198_156337">
<rect width="55.6676" height="63" fill="white" transform="translate(20 17)"/>
</clipPath>
</defs>
</svg>
