<svg width="48" height="48" viewBox="0 0 48 48" fill="none" xmlns="http://www.w3.org/2000/svg">
<rect width="48" height="48" rx="8" fill="#2665D6"/>
<path fill-rule="evenodd" clip-rule="evenodd" d="M23.9989 14.7492C18.8907 14.7492 14.7497 18.8901 14.7497 23.9982C14.7497 29.1063 18.8907 33.2472 23.9989 33.2472C29.1071 33.2472 33.2481 29.1063 33.2481 23.9982C33.2481 18.8901 29.1071 14.7492 23.9989 14.7492ZM13.2499 23.9982C13.2499 18.0618 18.0624 13.2494 23.9989 13.2494C29.9354 13.2494 34.7479 18.0618 34.7479 23.9982C34.7479 29.9346 29.9354 34.747 23.9989 34.747C18.0624 34.747 13.2499 29.9346 13.2499 23.9982Z" fill="white"/>
<path fill-rule="evenodd" clip-rule="evenodd" d="M25.0982 18.8045C25.6323 18.789 26.1608 18.9177 26.628 19.1772C27.0991 19.439 27.4902 19.8239 27.7594 20.2909C27.9663 20.6497 27.8431 21.1082 27.4843 21.3151C27.1254 21.5219 26.6669 21.3987 26.46 21.0399C26.3267 20.8086 26.133 20.618 25.8996 20.4883C25.6662 20.3587 25.402 20.2949 25.1351 20.3039C25.1267 20.3042 25.1183 20.3043 25.1099 20.3043H22.8879C22.4975 20.3043 22.123 20.4594 21.8469 20.7355C21.5709 21.0115 21.4158 21.386 21.4158 21.7764C21.4158 22.1668 21.5709 22.5412 21.8469 22.8173C22.123 23.0934 22.4975 23.2485 22.8879 23.2485H25.1099C25.8981 23.2485 26.654 23.5616 27.2114 24.1189C27.7687 24.6763 28.0818 25.4322 28.0818 26.2204C28.0818 27.0086 27.7687 27.7645 27.2114 28.3218C26.654 28.8791 25.8981 29.1923 25.1099 29.1923H22.8996C22.3655 29.2078 21.837 29.0791 21.3698 28.8195C20.8987 28.5578 20.5075 28.1728 20.2384 27.7059C20.0315 27.3471 20.1547 26.8885 20.5135 26.6817C20.8723 26.4748 21.3309 26.598 21.5378 26.9568C21.6711 27.1881 21.8648 27.3788 22.0982 27.5084C22.3316 27.6381 22.5958 27.7018 22.8626 27.6929C22.8711 27.6926 22.8795 27.6924 22.8879 27.6924H25.1099C25.5003 27.6924 25.8748 27.5373 26.1508 27.2613C26.4269 26.9852 26.582 26.6108 26.582 26.2204C26.582 25.8299 26.4269 25.4555 26.1508 25.1795C25.8748 24.9034 25.5003 24.7483 25.1099 24.7483H22.8879C22.0997 24.7483 21.3437 24.4352 20.7864 23.8778C20.229 23.3205 19.9159 22.5646 19.9159 21.7764C19.9159 20.9882 20.229 20.2323 20.7864 19.6749C21.3437 19.1176 22.0997 18.8045 22.8879 18.8045H25.0982Z" fill="white"/>
<path fill-rule="evenodd" clip-rule="evenodd" d="M23.9989 16.5823C24.4131 16.5823 24.7488 16.9181 24.7488 17.3323V19.5542C24.7488 19.9684 24.4131 20.3041 23.9989 20.3041C23.5847 20.3041 23.249 19.9684 23.249 19.5542V17.3323C23.249 16.9181 23.5847 16.5823 23.9989 16.5823ZM23.9989 27.6923C24.4131 27.6923 24.7488 28.028 24.7488 28.4422V30.6642C24.7488 31.0783 24.4131 31.4141 23.9989 31.4141C23.5847 31.4141 23.249 31.0783 23.249 30.6642V28.4422C23.249 28.028 23.5847 27.6923 23.9989 27.6923Z" fill="white"/>
</svg>
