<svg width="40" height="40" viewBox="0 0 40 40" fill="none" xmlns="http://www.w3.org/2000/svg">
  <rect width="40" height="40" rx="12" fill="#1D9BF0"/>
  <path d="M7.35672 28.2516C9.64627 29.7037 12.3622 30.544 15.2735 30.544C23.4526 30.544 30.0828 23.9131 30.0828 15.7348C30.0828 15.5306 30.0785 15.3279 30.0706 15.1258C30.3665 14.893 32.1961 13.4265 32.6446 12.4837C32.6446 12.4837 31.1588 13.1012 29.7046 13.2467C29.7017 13.2467 29.6982 13.2473 29.6953 13.2473C29.6953 13.2473 29.6982 13.2459 29.7031 13.2424C29.8371 13.1528 31.7104 11.8776 31.9641 10.3582C31.9641 10.3582 30.9131 10.9191 29.4417 11.4099C29.1981 11.4908 28.9431 11.5704 28.6801 11.6441C27.7316 10.6318 26.3834 10 24.8869 10C22.0163 10 19.6902 12.3254 19.6902 15.1938C19.6902 15.5986 19.7368 15.9925 19.8249 16.3708C19.4237 16.3544 13.315 16.0119 9.15922 10.9792C9.15922 10.9792 6.67552 14.3699 10.6393 17.8566C10.6393 17.8566 9.43438 17.8086 8.39483 17.1874C8.39483 17.1874 8.01301 21.2952 12.5019 22.3455C12.5019 22.3455 11.6186 22.68 10.2095 22.4415C10.2095 22.4415 10.9975 25.7606 14.9857 26.0707C14.9857 26.0707 11.832 28.9197 7.35529 28.2512L7.35672 28.2516Z" fill="white"/>
</svg>
