<svg width="48" height="48" viewBox="0 0 48 48" fill="none" xmlns="http://www.w3.org/2000/svg">
<rect width="48" height="48" rx="8" fill="black"/>
<path d="M23.7639 35.6087C19.014 35.6087 14.9976 32.4675 13.6612 28.1428C13.657 28.122 13.6654 28.1011 13.6862 28.0974C13.707 28.0932 13.7277 28.1015 13.7315 28.1224C15.1295 32.0526 19.0916 34.8861 23.7623 34.8861C28.4329 34.8861 32.3951 32.0526 33.7931 28.1224C33.7972 28.1015 33.818 28.0932 33.8401 28.0974C33.8609 28.1015 33.8692 28.1224 33.865 28.1428C32.5287 32.4675 28.5122 35.6087 23.7623 35.6087" fill="white"/>
<path d="M19.0171 19.4185C19.013 19.4109 18.988 19.3859 18.9797 19.3801C18.9506 19.3596 18.9373 19.3609 18.9136 19.3667C18.8886 19.3725 18.8845 19.38 18.8666 19.3859C18.8458 19.3917 18.8242 19.3917 18.8034 19.3844C18.761 19.3711 18.7331 19.3167 18.7007 19.2799C18.6923 19.2903 18.6757 19.3108 18.6757 19.3108C18.5614 19.2608 18.4453 19.2386 18.3206 19.277C18.3081 19.2799 18.2873 19.2653 18.2736 19.2607C18.2283 19.352 18.1327 19.3667 18.0478 19.3843C18.0104 19.3918 17.973 19.4094 17.9347 19.43C17.9139 19.4446 17.8931 19.4903 17.8715 19.5065C17.8507 19.5257 17.8274 19.5169 17.8083 19.5374C17.7451 19.6066 17.701 19.686 17.6998 19.7596C17.6983 19.8171 17.679 19.8627 17.6191 19.8892C17.5942 19.9009 17.5663 19.9259 17.5547 19.951C17.4902 20.0776 17.4241 20.2071 17.3713 20.3411C17.3505 20.3955 17.3422 20.4707 17.3139 20.5207C17.2686 20.6046 17.289 20.6796 17.3056 20.7621C17.3222 20.8475 17.37 21.0418 17.37 21.0418C17.1043 21.0476 16.6835 21.0623 16.3491 21.0785C16.3461 21.0358 16.2626 20.9004 16.2464 20.8754C16.2298 20.852 16.1877 20.7238 16.2713 20.6355C16.3004 20.6017 16.3931 20.4677 16.3931 20.3808C16.3961 20.1659 16.3079 19.9304 16.2875 19.7552C16.3932 19.6021 16.2834 19.4476 16.2917 19.2916C16.2917 19.287 16.2709 19.2682 16.2626 19.2578C16.3711 19.1194 16.4106 18.8898 16.3358 18.8471C16.0892 19.1518 16.2331 19.558 16.0821 19.8936C16.0696 19.9393 16.0488 19.982 16.0946 20.032C16.137 20.0761 16.0613 20.2543 16.0331 20.2263C16.0747 20.1424 15.9582 20.0688 15.9025 19.9923C15.8859 19.9702 15.9025 19.9437 15.9025 19.9201C15.9977 19.823 16.0435 19.7214 15.9524 19.5948C15.9274 19.5594 15.9357 19.5021 15.9274 19.4565C16.036 19.4138 16.0962 19.3358 16.0713 19.2386C16.0463 19.1385 16.0755 19.0502 16.1129 18.9619C16.1582 18.853 16.2069 18.7441 16.2539 18.6322C16.283 18.56 16.3038 18.4909 16.2524 18.4276C16.2441 18.4172 16.2399 18.3979 16.2441 18.3909C16.3015 18.2333 16.3788 18.0861 16.4715 17.9419C16.5302 17.8315 16.5975 17.7299 16.6724 17.6313C15.6352 18.4939 14.7844 19.5375 14.1757 20.7107C14.1673 20.724 14.1549 20.7311 14.1424 20.7311C14.1216 20.7311 14.105 20.7136 14.105 20.6927L14.1079 20.6781C14.9323 18.8308 16.2584 17.2631 17.9439 16.1444C19.6719 14.9978 21.6861 14.3913 23.7661 14.3913C25.8462 14.3913 27.8603 14.9978 29.5883 16.1444C31.2738 17.2631 32.5999 18.8308 33.4243 20.6781L33.4273 20.6927C33.4273 20.7132 33.4106 20.7311 33.3899 20.7311C33.3774 20.7311 33.3649 20.7236 33.3566 20.7119C33.2243 20.4529 33.078 20.2041 32.9223 19.9612C32.8491 19.9038 32.7772 19.8508 32.736 19.7596C32.7028 19.683 32.5672 19.658 32.5073 19.5903C32.4458 19.5211 32.3709 19.4563 32.3298 19.3754C32.2462 19.2075 32.104 19.1134 31.9398 19.0265C31.7755 18.9161 31.6449 18.7571 31.4718 18.6438C31.4552 18.635 31.4427 18.6584 31.4303 18.6747C31.4552 18.7954 31.5475 18.8969 31.659 18.9734C31.7646 19.0691 31.829 19.2001 31.97 19.2678C32.1006 19.3473 32.2032 19.468 32.3176 19.571L32.3134 19.5785L32.2927 19.6065C32.2594 19.5815 32.2236 19.5565 32.1899 19.5315L32.1816 19.536C32.1983 19.5744 32.2024 19.6244 32.2299 19.6406C32.3135 19.6965 32.328 19.7848 32.3164 19.8495C32.3149 19.86 32.3134 19.8688 32.3122 19.8775C32.3093 19.8892 32.308 19.9009 32.308 19.913V19.9176C32.3066 19.9263 32.3066 19.9322 32.3066 19.9426C32.3066 19.9882 32.3149 20.0309 32.3274 20.0736C32.3315 20.097 32.3357 20.1207 32.344 20.1458C32.265 20.0928 32.1843 20.0442 32.1078 19.9882C32.0912 19.9749 32.0912 19.9397 32.0829 19.9132L32.0843 19.9117L32.0829 19.9013C32.1161 19.8483 32.2031 19.8821 32.275 19.8704C32.2031 19.5981 31.9581 19.4877 31.7543 19.3184C31.659 19.2404 31.5721 19.1536 31.4885 19.0652C31.4224 18.9931 31.3522 18.9121 31.254 18.8886C31.2332 18.9149 31.2124 18.9357 31.1983 18.9666C31.1817 18.9992 31.19 19.0844 31.1559 19.077C31.0781 19.0608 30.9638 18.999 30.8947 19.0507C30.8781 19.0891 30.8933 19.1626 30.9322 19.1906C31.0291 19.2715 30.9696 19.3495 30.8947 19.4114C30.8407 19.4629 30.8436 19.5512 30.8436 19.6204C30.8436 19.6483 30.8394 19.691 30.8519 19.7028C30.9634 19.775 30.9031 19.8853 30.9222 19.9781C30.9207 20.0546 30.9139 20.1739 30.8224 20.1842C30.5804 20.2046 30.4864 20.4226 30.444 20.3608C30.3766 20.3005 30.3559 20.2813 30.3118 20.2386C30.2573 20.1842 30.2107 20.1577 30.133 20.2153C30.0956 20.2432 30.029 20.2374 29.9716 20.2461C29.955 20.1931 29.9467 20.1475 29.93 20.1092C29.9092 20.0577 29.9051 20.0018 29.8244 19.9885C29.7995 19.9856 29.7612 19.9781 29.767 19.9046C29.7878 19.6632 29.6864 19.4792 29.5454 19.2923C29.5329 19.2731 29.4793 19.2539 29.4751 19.2304C29.4627 19.1716 29.5205 19.2083 29.5604 19.1804C29.5978 19.1541 29.5575 19.1053 29.6939 19.1156C29.9051 19.1319 30.1193 19.0894 30.3584 19.07C30.2278 18.8786 30.2074 18.7329 30.1617 18.6814C30.1243 18.6358 29.9858 18.5475 29.871 18.4871C29.8419 18.4725 29.8008 18.4667 29.7654 18.4679C29.6789 18.4709 29.6057 18.4516 29.5558 18.3752C29.6307 18.2603 29.7584 18.3606 29.8611 18.3075C29.8236 18.2678 29.7509 18.2147 29.7496 18.1838C29.7979 18.1617 29.8831 18.2072 29.933 18.2176C29.9621 18.169 29.9887 18.1337 30.0166 18.0881C30.0041 18.0647 29.955 18.0116 29.9654 17.9924C30.0785 17.8761 30.0902 17.9232 30.0357 17.7672C30.0565 17.7509 30.0839 17.8128 30.1135 17.8467C30.1218 17.807 30.1837 17.7672 30.0548 17.6936C30.0465 17.6861 30.0839 17.6714 30.106 17.6552C30.1226 17.6435 30.1045 17.6243 30.1226 17.6168C30.1642 17.6005 30.2166 17.6081 30.2299 17.5934C30.1197 17.5051 30.0349 17.4124 29.9276 17.3315C29.8498 17.2785 29.8116 17.2181 29.8644 17.1577C29.9247 17.1915 29.9862 17.2225 30.0448 17.2564C30.0823 17.2977 30.0532 17.3432 30.1226 17.3683C30.1392 17.3566 30.2266 17.3507 30.2311 17.3328C30.2395 17.3123 30.1725 17.271 30.165 17.2563C30.1318 17.1989 29.9817 17.084 29.9305 17.0825C29.8661 17.0796 29.7546 17.0031 29.706 16.9574C29.7226 16.972 29.6768 16.9912 29.6768 17.006C29.6394 17.1561 29.461 17.0987 29.4041 16.9985C29.3916 16.9793 29.3496 16.9939 29.335 16.9763C29.234 16.8615 29.2382 16.888 29.1151 16.8188C29.1068 16.8113 29.1121 16.7909 29.1068 16.757C29.0984 16.6687 28.9808 16.6186 28.9808 16.5966C28.9808 16.5732 29.0789 16.5862 29.091 16.4347C28.4939 16.1138 27.8661 15.8488 27.2177 15.6428C27.1324 15.6544 27.0489 15.6736 26.9786 15.7061C26.8584 15.7693 26.7129 15.7635 26.5765 15.7369C26.5104 15.7252 26.4825 15.7532 26.4534 15.8076C26.4285 15.8532 26.3611 15.8561 26.3199 15.8944L26.3491 15.9562C26.3158 16.0181 26.2742 16.0549 26.2301 16.1358C26.1041 16.0873 25.9968 16.0254 25.8663 16.0033C25.7224 15.98 25.6097 15.918 25.5158 15.8105C25.4147 15.6987 25.2679 15.6162 25.1785 15.4926C25.1536 15.4588 25.1494 15.4043 25.1577 15.366C25.166 15.3364 25.2064 15.3189 25.2459 15.3086C25.2708 15.3056 25.3016 15.3173 25.3266 15.3161C25.3515 15.3131 25.416 15.2439 25.4426 15.2322C25.1211 15.1865 24.7971 15.1527 24.4714 15.1321C24.555 15.1525 24.6153 15.1968 24.6536 15.2749C24.6095 15.2734 24.57 15.2703 24.5318 15.2673L24.5288 15.2849C24.74 15.3776 25.0598 15.4909 25.1317 15.5616C25.1359 15.5808 25.0614 15.6 24.8926 15.6484C24.851 15.6572 24.7899 15.5734 24.5391 15.4836C24.5308 15.4806 24.4967 15.5028 24.4976 15.504C24.5059 15.5307 24.5184 15.5614 24.54 15.5776C24.6206 15.6306 24.7071 15.6807 24.8024 15.7366C24.7496 15.7763 24.6456 15.7454 24.6951 15.8573C24.5749 15.7911 24.4693 15.7337 24.3637 15.6763L24.3554 15.6879C24.414 15.7365 24.4714 15.7822 24.53 15.8293C24.5259 15.838 24.5217 15.8455 24.5134 15.8555C24.33 15.8188 24.157 15.7452 23.9794 15.6848C23.9586 15.6761 23.9103 15.6142 23.8941 15.5965C23.8941 15.5965 23.727 15.5037 23.6476 15.4802C23.5686 15.4568 23.47 15.4418 23.3702 15.4464C23.2704 15.451 23.2484 15.4126 23.2484 15.4126C23.2484 15.4126 23.2816 15.3508 23.3307 15.3464C23.3789 15.3464 23.5066 15.3802 23.5831 15.3848C23.6609 15.3935 23.7752 15.404 23.7752 15.404C23.7669 15.3702 23.7627 15.3568 23.7586 15.3348C23.8421 15.3243 23.9257 15.3127 24.0168 15.301C23.996 15.2553 24.0127 15.1788 23.9187 15.2436C23.902 15.2553 23.8584 15.2319 23.8085 15.2231C23.8376 15.2039 23.8509 15.1968 23.8642 15.1864C23.8351 15.1818 23.7997 15.1789 23.7748 15.1672C23.7457 15.1526 23.7232 15.1334 23.7016 15.1098C23.3673 15.1127 23.0341 15.129 22.7026 15.1598C22.745 15.2703 22.8831 15.2746 22.9533 15.3894C22.8419 15.3732 22.7305 15.3423 22.6219 15.3306C22.5604 15.332 22.481 15.3689 22.4223 15.3631C22.3807 15.3585 22.3533 15.2645 22.3491 15.2674C22.3974 15.2203 22.4872 15.1982 22.5808 15.1718C22.365 15.1939 22.151 15.2233 21.9383 15.2557C21.3046 15.3852 21.1182 15.5736 21.0288 15.6649C21.0288 15.6649 21.1419 15.7267 21.1785 15.7502C21.1494 15.7988 21.1257 15.8415 21.1053 15.8754C21.2035 15.9063 21.4633 15.9917 21.5381 16.0402C21.667 16.2434 21.9165 16.2287 22.1219 16.2978C22.0765 16.3626 22.0661 16.4318 22.0266 16.4922C22.0183 16.5055 22.0183 16.5318 22.0266 16.5481C22.0516 16.6011 22.0557 16.6394 22.0882 16.6924C22.0965 16.704 22.1173 16.7232 22.1306 16.722C22.4225 16.7145 22.4034 16.6263 22.4475 16.3923C22.5897 16.3731 22.9418 16.3848 22.9785 16.2142C22.9827 16.1185 22.8816 16.0301 22.8084 16.0066C22.8126 15.9978 22.8209 15.9861 22.8251 15.9757C22.8791 15.9728 23.0172 15.9183 23.0346 15.8992C23.0097 15.8654 23.043 15.8608 22.9972 15.8065C23.0471 15.796 23.072 15.796 23.0837 15.7623C23.0866 15.7535 23.0837 15.7297 23.0795 15.7152C23.0766 15.7064 23.078 15.696 23.0825 15.6889C23.0908 15.6801 23.0991 15.6743 23.1157 15.6756C23.2625 15.6918 23.4151 15.7152 23.5602 15.7506C23.6263 15.7698 23.707 15.8021 23.7436 15.8537C23.8184 15.9611 23.9224 15.9567 24.0163 15.995C23.9269 16.0907 23.9831 16.1878 24.075 16.2482C24.2758 16.3939 24.4887 16.2895 24.6691 16.1893C24.7323 16.2835 24.9098 16.4469 24.9801 16.5323C24.9801 16.5323 24.9594 16.5897 25.0433 16.731C25.1315 16.8768 25.3735 16.9415 25.5406 17.0136C25.489 17.068 25.5157 17.0887 25.7564 17.202C25.7523 17.2417 25.755 17.283 25.7273 17.3066C25.6857 17.3449 25.6229 17.361 25.5822 17.3713C25.519 17.3905 25.4591 17.3759 25.4092 17.3684C25.336 17.3567 25.2641 17.3521 25.1922 17.38C25.0483 17.436 24.9136 17.4197 24.7697 17.3786C24.5539 17.3167 24.337 17.2638 24.1184 17.2137C24.029 17.1916 23.9366 17.1874 23.8543 17.255C23.8294 17.2755 23.7707 17.2667 23.7267 17.2742C23.6135 17.2917 23.3275 17.3949 23.2294 17.445C23.4876 17.3817 23.7516 17.3184 24.0743 17.3301C24.1288 17.3331 24.1799 17.3447 24.2531 17.3875C24.2739 17.3992 24.2972 17.4259 24.2905 17.4479C24.2876 17.4641 24.2489 17.4833 24.229 17.4833C24.157 17.4892 24.0851 17.4863 24.0132 17.4863C24.0117 17.4951 24.009 17.5026 24.009 17.5097C24.0751 17.5172 24.1396 17.5259 24.2219 17.5347C24.1749 17.5597 24.1354 17.5789 24.0943 17.6024C24.1275 17.7555 24.251 17.8173 24.4065 17.8468C24.4548 17.8555 24.5284 17.8852 24.5783 17.9027C24.6635 17.8585 24.7442 17.8158 24.8249 17.7702C24.8457 17.7585 24.8731 17.7673 24.8498 17.7965C24.8011 17.8451 24.8415 17.8421 24.829 17.8657C24.8498 17.8849 24.876 17.907 24.8993 17.9275C24.9076 17.935 24.9076 17.9421 24.8951 17.9496C24.7912 17.9333 24.7941 17.9776 24.6677 17.9584C24.6594 17.9717 24.7009 17.9968 24.6344 17.9922C24.3999 17.9907 24.1635 17.9538 23.9362 18.0349C23.8879 18.0524 23.8351 18.0645 23.8027 18.0069C23.7902 17.9877 23.7694 17.9612 23.7736 17.9466C23.7819 17.9232 23.811 17.8995 23.8339 17.895C23.9116 17.8775 23.9923 17.8687 24.0746 17.8347C24.0705 17.7861 23.9046 17.8126 23.7561 17.8113C23.6958 17.8584 23.4879 17.851 23.3557 17.8393C23.1944 17.8189 22.9935 17.8806 22.9127 18.0027C22.9002 18.0231 22.9168 18.0571 22.9376 18.0718C22.9584 18.091 23.0328 18.0969 23.0287 18.1234C22.684 18.1263 22.5916 18.0483 22.4038 18.066C22.4038 18.0718 22.4287 18.0793 22.4204 18.0985C22.4454 18.1031 22.4716 18.1073 22.4953 18.1161C22.5161 18.1236 22.5672 18.1265 22.6026 18.1306C22.6109 18.1352 22.6109 18.1411 22.6026 18.1453C22.5497 18.1453 22.4691 18.1498 22.4487 18.1453C22.4017 18.129 22.3564 18.1453 22.3227 18.1453C22.2853 18.1953 22.2229 18.1953 22.1921 18.2262C22.1589 18.2525 22.1277 18.3572 22.0703 18.3455C22.0689 18.2939 22.0163 18.2807 21.9971 18.2571C21.9888 18.263 21.9763 18.2676 21.968 18.2717C22.0266 18.4557 21.8358 18.4454 21.7846 18.5514C21.7638 18.566 21.768 18.5368 21.7597 18.5322C21.7805 18.5059 21.7805 18.4851 21.7929 18.4719C21.7638 18.4364 21.7929 18.3571 21.7929 18.3056C21.7846 18.291 21.7555 18.2951 21.7476 18.3248C21.7227 18.4101 21.689 18.4793 21.7061 18.5676C21.753 18.6633 21.7076 18.759 21.6004 18.7855C21.5713 18.7943 21.5152 18.7855 21.5301 18.8458C21.5301 18.8473 21.4886 18.8663 21.464 18.8663C21.3247 18.8648 21.2574 18.8884 21.1867 18.9502C20.99 18.931 20.8582 19.0812 20.6835 19.1224C20.5896 19.1445 20.4973 19.2181 20.4386 19.2917C20.3185 19.4757 20.4095 19.7332 20.3713 19.9393C20.3546 20.0321 20.2553 20.1351 20.2465 20.2072C20.2465 20.2072 20.2299 20.2087 20.2174 20.2102C20.1883 20.2117 20.1101 20.2381 20.0839 20.2027C20.1172 20.1379 20.0328 20.0231 20.0078 19.9245C19.9829 19.8317 19.9829 19.7081 20.0245 19.6197C20.0494 19.5682 20.0494 19.5564 19.9995 19.5123C19.9871 19.5019 19.9787 19.4872 19.9746 19.4756C19.9413 19.3828 19.9072 19.3563 19.8058 19.3991C19.7575 19.4224 19.7163 19.4137 19.6827 19.3564C19.6577 19.3151 19.5887 19.2886 19.5359 19.2651C19.4756 19.2417 19.3995 19.3018 19.3392 19.2224C19.3184 19.1961 19.1454 19.2458 19.0839 19.2521C19.0756 19.2566 19.1047 19.3095 19.0673 19.3301C19.059 19.3376 19.0423 19.3418 19.0465 19.3551C19.0465 19.3597 19.0672 19.3948 19.0589 19.4037C19.0423 19.4183 19.034 19.4183 19.034 19.4183L19.0171 19.4185ZM30.5926 17.5358C30.65 17.4239 30.5206 17.3636 30.44 17.3121C30.415 17.2975 30.3755 17.3062 30.3285 17.3016C30.3535 17.3371 30.3618 17.3561 30.3797 17.3782C30.3589 17.3869 30.3381 17.3944 30.3194 17.4015C30.3277 17.4278 30.3319 17.4516 30.3443 17.4899C30.2886 17.4753 30.2504 17.4635 30.2109 17.4544L30.2026 17.4707C30.2583 17.4974 30.314 17.5251 30.3772 17.5545C30.4021 17.4868 30.4387 17.4677 30.5003 17.5354C30.5127 17.5516 30.5868 17.547 30.5926 17.5354" fill="white"/>
<path fill-rule="evenodd" clip-rule="evenodd" d="M23.7329 15.1777C23.7578 15.2969 23.5612 15.2321 23.4834 15.2248C23.567 15.132 23.6551 15.1821 23.7329 15.1777Z" fill="white"/>
<path d="M25.6825 17.471C25.5008 17.496 25.5079 17.5652 25.4875 17.6123C25.5507 17.6211 25.6518 17.6006 25.7091 17.6077L25.7174 17.6282C25.705 17.634 25.6967 17.6399 25.6659 17.6545C25.8069 17.7001 25.9328 17.7384 26.0634 17.7766C26.0509 17.815 25.9989 17.865 25.9873 17.8959C26.0592 17.9372 26.1179 17.9134 26.122 17.9255C26.1303 17.9372 26.0397 17.9771 26.006 18.0006L26.0143 18.0152C26.0517 18.0035 26.1345 17.9695 26.1466 17.9768C26.1798 18.0018 26.105 18.0106 26.0879 18.0593C26.1295 18.0534 26.1686 18.0388 26.189 18.0342C26.1973 18.0459 26.1807 18.0563 26.2015 18.0726C26.1341 18.1977 26.1412 18.1992 26.0622 18.1373C26.0538 18.1298 26.0913 18.1036 26.0592 18.0829C26.0468 18.0754 26.0385 18.1033 26.0093 18.1154C25.9886 18.1067 25.9678 18.1021 25.942 18.0962C25.9503 18.0712 26.0064 18.0477 25.9711 18.0109C25.8596 18.0284 25.7437 18.0388 25.6426 18.0342C25.6177 18.0284 25.626 18.0109 25.6411 18.0063C25.7014 18.0078 25.7892 17.9917 25.785 17.9829C25.6486 17.9416 25.5343 17.9152 25.4095 17.8769C25.2923 17.8386 25.0927 17.8682 25.0474 17.7886C25.0058 17.715 25.1925 17.5767 25.3904 17.4663C25.4328 17.44 25.5501 17.4177 25.6648 17.4133C25.6773 17.4191 25.6524 17.4589 25.6815 17.4707" fill="white"/>
<path fill-rule="evenodd" clip-rule="evenodd" d="M31.4227 19.0901C31.4643 19.202 31.5312 19.2683 31.53 19.333C31.4377 19.2874 31.389 19.2359 31.3907 19.1741C31.3921 19.1478 31.4239 19.149 31.4239 19.0901" fill="white"/>
<path d="M24.1611 17.6727C24.1778 17.6668 24.2027 17.6359 24.2168 17.6241C24.2742 17.7624 24.4235 17.7095 24.525 17.7772C24.4738 17.7889 24.4281 17.8005 24.3811 17.8126C24.2563 17.7582 24.2447 17.7493 24.1611 17.6728" fill="white"/>
<path d="M24.2803 17.3091C24.4021 17.287 24.5518 17.3548 24.6633 17.4637L24.6508 17.4899C24.482 17.4443 24.3601 17.3634 24.2811 17.3089" fill="white"/>
<path d="M28.4465 17.9346C28.4631 17.8846 28.4548 17.8316 28.4381 17.8081C28.3824 17.7743 28.3883 17.7726 28.3325 17.7389C28.3355 17.7301 28.3242 17.6918 28.3242 17.6815C28.3725 17.6581 28.3845 17.6418 28.4165 17.6153C28.4664 17.552 28.3957 17.5461 28.4082 17.5284C28.4685 17.4519 28.5504 17.4063 28.6282 17.3871C28.6656 17.4209 28.703 17.4548 28.7513 17.4975C28.7498 17.5004 28.7388 17.5313 28.7305 17.5461C28.7803 17.5932 28.8581 17.6476 28.8843 17.7816C28.7596 17.892 28.651 17.995 28.5779 18.0348C28.5404 18.0581 28.4868 18.0569 28.4606 18.0377C28.444 18.0231 28.4273 17.9964 28.444 17.9346" fill="white"/>
<path d="M28.7808 17.4254C28.7725 17.402 28.7683 17.3812 28.76 17.3591C28.735 17.3666 28.7267 17.3516 28.6793 17.3679C28.7042 17.3238 28.7084 17.3223 28.7234 17.2987L28.6984 17.3121C28.6776 17.2824 28.6652 17.2473 28.6411 17.2252C28.6078 17.1943 28.5633 17.1752 28.5371 17.1605C28.5662 17.1075 28.5957 17.0604 28.6265 17.0118C28.6706 17.0118 28.7309 17.0118 28.807 17.0103C28.7408 17.1134 28.7737 17.1384 28.876 17.1222C28.9641 17.1089 29.0182 17.1414 29.0124 17.237C29.0095 17.2667 29.0165 17.2974 29.0165 17.3062C29.2161 17.452 29.4581 17.524 29.5857 17.739C29.6751 17.655 29.8173 17.7244 29.7766 17.9377C29.8015 17.9465 29.8265 17.9582 29.8514 17.9703C29.85 17.9807 29.85 17.9907 29.85 17.9924C29.8125 18.0601 29.5069 18.0483 29.3805 18.1028C29.3132 18.1307 29.3556 18.0204 29.156 18.1174C29.2442 17.9231 29.2849 17.9805 29.3319 17.9393C29.2658 17.9259 29.1897 17.9084 29.0899 17.8848C29.1618 17.8452 29.2234 17.7509 29.119 17.7435C29.1024 17.742 29.1024 17.7051 29.0899 17.6787H29.2013C29.2096 17.6712 29.2138 17.6625 29.2221 17.6583C29.1722 17.5744 29.1398 17.5479 29.0637 17.4816C28.9918 17.4787 28.8583 17.567 28.8774 17.3786C28.8358 17.3978 28.8084 17.4095 28.7793 17.4257L28.7807 17.4287L28.7766 17.4257" fill="white"/>
<path d="M31.6513 19.7526C31.6264 19.6098 31.5411 19.5641 31.4958 19.467C31.4875 19.4494 31.5249 19.414 31.5457 19.3802C31.6409 19.4817 31.7145 19.6142 31.7245 19.6908C31.7287 19.7364 31.6996 19.6983 31.6763 19.7629C31.668 19.76 31.6513 19.7599 31.6513 19.7525" fill="white"/>
<path d="M23.2841 31.4886C23.2841 31.451 23.2063 31.4719 23.1535 31.4802C23.1369 31.4817 23.1976 31.5136 22.998 31.6409C23.0271 31.6409 23.1668 31.6438 23.1198 31.6659C22.9597 31.7953 22.8013 31.8808 22.6284 31.9868C22.6118 31.9951 22.586 31.9993 22.5727 31.9952C22.4874 31.9392 22.3789 31.9951 22.2941 31.8804C22.2608 31.832 22.2059 31.8387 22.1843 31.8245C22.176 31.8216 22.139 31.736 22.1257 31.7435C22.1215 31.7477 22.0816 31.7686 22.0841 31.7811C22.0882 31.7978 22.1132 31.8283 22.1132 31.8283C22.1548 31.8737 22.2205 31.9238 22.2542 31.968C22.2583 31.9764 22.2512 32.0135 22.2292 32.049C22.2209 32.0656 22.2209 32.1078 22.2417 32.1462C22.25 32.167 22.2916 32.1587 22.2858 32.1963C22.2733 32.2726 22.1261 32.3803 22.0392 32.3757C21.929 32.3742 21.8192 32.3632 21.7107 32.3506C21.6184 32.3381 21.539 32.4066 21.5639 32.4992C21.5805 32.5522 21.5609 32.5684 21.5223 32.5655C21.4225 32.5572 21.3315 32.5363 21.2421 32.4829C21.2296 32.636 21.2435 32.6523 21.3697 32.6757C21.3905 32.6798 21.4072 32.7228 21.4342 32.755C21.3448 32.7842 21.2246 32.7633 21.2495 32.8831C21.2579 32.9123 21.2371 32.9477 21.2288 32.9786C21.176 32.9995 21.0749 32.9995 21.0558 33.0345C21.0308 33.161 21.163 33.1434 21.2537 33.2039C21.2579 33.2415 21.2579 33.2774 21.2495 33.2924C21.2204 33.3258 21.1468 33.3762 21.1115 33.4029C21.1144 33.4455 21.1198 33.4781 21.1032 33.4956C21.0782 33.4998 21.04 33.5165 21.0138 33.5206C21.0304 33.6045 21.0857 33.6592 21.1061 33.693C21.1031 33.7096 21.04 33.6762 20.9988 33.6721L21.131 33.7589C21.2071 33.8031 21.1751 33.8177 21.247 33.8841C21.3144 33.9446 21.3481 33.9562 21.3452 33.9637C21.341 33.9763 21.3577 34.0401 21.1514 33.9721C20.9065 33.8924 20.8433 33.8615 20.5558 33.5819C20.5558 33.5819 20.402 33.4434 20.2976 33.1522C20.2893 33.1313 20.2643 33.105 20.2768 33.0875C20.2851 33.075 20.3018 33.0708 20.3342 33.075C20.3313 33.0458 20.3372 32.9998 20.3217 32.9882C20.2968 32.9673 20.2115 33.0132 20.2074 32.9548C20.2406 32.868 20.2556 32.8872 20.2706 32.8033C20.2747 32.7783 20.2456 32.7487 20.2456 32.6268C20.2456 32.606 20.2789 32.5976 20.2939 32.6101C20.3188 32.6631 20.3392 32.7365 20.3762 32.7703C20.3346 32.5171 20.3679 32.591 20.3429 32.4053C20.3138 32.3677 20.3013 32.3886 20.2918 32.3886V32.5697C20.2186 32.5613 20.192 32.5363 20.2082 32.4241C20.2112 32.4074 20.2373 32.4199 20.2096 32.3665C20.1847 32.321 20.193 32.25 20.193 32.2121C20.2417 32.0811 20.1972 31.9605 20.1431 31.8487C20.0712 31.7101 20.1446 31.7531 20.1598 31.6955C20.233 31.4539 20.3477 31.2171 20.2799 30.9478C20.2592 30.8714 20.2184 30.783 20.2924 30.7049C20.3007 30.6966 20.2966 30.6715 20.2924 30.6565C20.2483 30.5272 20.309 30.4137 20.3365 30.2931C20.3531 30.2121 20.3614 30.1283 20.3698 30.0457C20.3864 29.91 20.403 29.7719 20.3905 29.6363C20.3934 29.5408 20.3876 29.4949 20.3988 29.4227C20.4072 29.3593 20.4562 29.2992 20.4592 29.2341C20.4621 29.0868 20.4508 28.9395 20.4425 28.7925C20.441 28.7675 20.4342 28.7349 20.4176 28.7162C20.2371 28.4984 20.0566 28.2834 19.8117 28.1392C19.6358 28.0348 19.5552 27.855 19.4595 27.6402C19.4429 27.6068 19.4263 27.5592 19.4038 27.5091C20.8868 27.462 22.367 27.4355 23.8441 27.437C24.9546 27.437 26.2485 27.4445 27.3604 27.4708C27.352 27.6239 27.3437 27.8005 27.3437 27.83C27.3271 28.0419 27.2909 28.0536 27.1986 28.248C27.1192 28.4024 26.9874 28.4717 26.8714 28.5601C26.6909 28.6987 26.4796 28.7925 26.3153 28.9532C26.2567 29.0003 26.2039 29.0737 26.1378 29.0929C25.8604 29.1651 25.9016 29.4284 25.8006 29.6287C25.7066 29.8424 25.5848 29.9363 25.4575 30.1543C25.4018 30.2306 25.2962 30.2778 25.2168 30.3353C25.161 30.4722 25.0351 30.5223 24.9249 30.5945C24.8238 30.6237 24.7124 30.5569 24.608 30.5457C24.5099 30.529 24.388 30.5987 24.3527 30.6708C24.1547 30.6375 24.0329 30.7251 23.8657 30.8018C23.738 30.8561 23.7073 30.9712 23.7102 31.086C23.7131 31.1744 23.6769 31.2245 23.6149 31.2583C23.4844 31.3305 23.3904 31.4348 23.2864 31.5425C23.2424 31.588 23.207 31.5925 23.2012 31.5925C23.1997 31.594 23.1679 31.5967 23.2864 31.4882L23.2841 31.4886Z" fill="white"/>
<path d="M39.0977 27.2567C38.9746 26.9314 38.8499 26.609 38.7251 26.2866C38.0415 26.2307 37.3565 26.1792 36.6729 26.1306L36.2986 27.0447C35.8836 27.0167 35.4684 26.9887 35.0532 26.9652C35.7618 25.349 36.4688 23.7342 37.1773 22.1268C37.3503 22.1402 37.525 22.1519 37.6981 22.1652C37.8727 22.1786 38.0457 22.1902 38.2203 22.2048C38.9274 23.9212 39.6344 25.6419 40.3415 27.3641C39.9277 27.3257 39.5127 27.292 39.0975 27.2567H39.0977ZM37.0851 25.1223C37.4943 25.1532 37.9036 25.1841 38.3129 25.2165C38.1075 24.6851 37.9037 24.1552 37.6982 23.6239C37.4945 24.1243 37.2891 24.6233 37.0851 25.1223" fill="white"/>
<path d="M18.144 26.7238C17.4634 25.0841 16.7827 23.4517 16.1021 21.8207C16.5362 21.8015 16.972 21.784 17.4062 21.7677C17.7991 22.7952 18.1924 23.8226 18.5855 24.85C18.9789 23.7991 19.3718 22.748 19.7649 21.6985C20.2006 21.6881 20.6348 21.6793 21.0705 21.6718C20.3884 23.3425 19.7078 25.0176 19.0271 26.6971C18.8803 26.7017 18.7323 26.7047 18.5855 26.7088C18.4388 26.7134 18.2924 26.7193 18.144 26.7234" fill="white"/>
<path d="M5.17501 25.6154C5.17501 26.3249 5.43906 26.6576 6.05664 26.5943C6.67567 26.5325 6.93972 26.1497 6.93972 25.4403V22.4507C7.33142 22.4123 7.72449 22.3771 8.1162 22.3432V25.352C8.1162 26.7356 7.42818 27.5246 6.05664 27.66C4.68651 27.7969 4 27.1448 4 25.7612V22.7525C4.3917 22.7098 4.78335 22.6671 5.17501 22.6273" fill="white"/>
<path d="M33.1391 23.7269C33.9048 24.0434 34.9522 24.429 34.9522 25.455C34.9522 26.5045 34.2056 27.058 32.9 26.9932C32.1299 26.9548 31.3245 26.4942 31.0957 26.3558C31.0874 26.3512 31.079 26.3471 31.0707 26.3412V25.1636C31.0957 25.1782 31.1177 25.1916 31.141 25.2093C31.8436 25.6553 32.4245 25.907 32.8984 25.9659C33.4631 26.038 33.7257 25.8688 33.7257 25.5287C33.7257 25.3874 33.6084 25.2476 33.3544 25.1225C33.2092 25.0488 33.0346 24.9767 32.8498 24.9002C32.0283 24.566 31.0073 24.2393 31.0073 23.0985C31.0073 22.0902 31.8933 21.6751 32.772 21.7178C33.4438 21.7486 34.2448 22.0887 34.6203 22.308C34.6287 22.3126 34.637 22.3185 34.6453 22.3226V23.5002C34.6203 23.4856 34.5983 23.4706 34.575 23.4545C34.3434 23.3059 33.5276 22.8142 32.7722 22.7789C32.3921 22.7614 32.228 22.8996 32.228 23.0777C32.228 23.2043 32.3498 23.3544 32.6005 23.4855C32.7486 23.5649 32.9378 23.643 33.1374 23.7269" fill="white"/>
<path d="M29.4029 24.7852C29.7929 25.4388 30.1818 26.0923 30.572 26.7474C30.132 26.7311 29.6904 26.7165 29.2503 26.7047C28.9056 26.1026 28.5609 25.5021 28.2147 24.9045C27.946 24.8986 27.6778 24.8928 27.4094 24.8882V26.659C27.0235 26.6515 26.6378 26.6473 26.252 26.6427V21.663C27.138 21.6718 28.024 21.691 28.91 21.7145C29.8327 21.7396 30.3578 22.3725 30.3578 23.3249C30.3578 24.2552 29.8503 24.632 29.4029 24.7851V24.7852ZM27.4035 23.8491C27.7644 23.8578 28.1267 23.8653 28.4875 23.8724C29.0288 23.887 29.1374 23.5839 29.1374 23.3278C29.1374 23.0717 29.0272 22.7611 28.4875 22.7478C28.1266 22.7374 27.7643 22.7303 27.4035 22.7228" fill="white"/>
<path d="M14.4431 26.8814C14.4402 25.221 14.439 23.562 14.439 21.9017C14.829 21.8795 15.2208 21.8604 15.611 21.8443V26.8225C15.2222 26.8417 14.8335 26.8609 14.4448 26.8814" fill="white"/>
<path d="M22.7138 24.6277V25.5816C23.6013 25.5741 24.4873 25.5741 25.3748 25.5816V26.6325C24.1059 26.6238 22.837 26.6279 21.5696 26.6442C21.5667 24.9838 21.5654 23.3249 21.5654 21.6645C22.8255 21.6483 24.0871 21.6441 25.3471 21.6529V22.698C24.4699 22.6921 23.5927 22.6921 22.7155 22.698V23.5782C23.3111 23.5736 23.9066 23.5723 24.5022 23.5736V24.6261C23.9066 24.6246 23.3111 24.6261 22.7155 24.6275" fill="white"/>
<path d="M12.2982 22.0253C12.687 22.0019 13.0757 21.9782 13.4644 21.9561V26.9358C13.1463 26.9533 12.8292 26.9725 12.5109 26.9932L12.4984 26.974C11.7503 26.0231 11.0022 25.0767 10.2555 24.1331V27.1507C9.86676 27.1803 9.47806 27.211 9.08936 27.2419V22.2622C9.4665 22.2326 9.84335 22.2019 10.2203 22.1739L10.2328 22.1902C10.9208 23.0557 11.6088 23.9271 12.2983 24.8" fill="white"/>
<path d="M40.8345 22.4301C41.2233 22.4656 41.6105 22.5037 41.9992 22.5419V26.478C42.6667 26.5443 43.3341 26.6134 44.0001 26.6885V27.7321C42.9483 27.6157 41.8951 27.5069 40.8403 27.4098C40.8389 25.7508 40.8362 24.0905 40.8362 22.4301" fill="white"/>
</svg>
