<svg width="48" height="48" viewBox="0 0 48 48" fill="none" xmlns="http://www.w3.org/2000/svg">
<rect width="48" height="48" rx="8" fill="#D2E823"/>
<path fill-rule="evenodd" clip-rule="evenodd" d="M12.7499 16.0996C12.7499 15.6854 13.0857 15.3497 13.4998 15.3497H34.4977C34.9119 15.3497 35.2476 15.6854 35.2476 16.0996V31.8477C35.2476 32.2619 34.9119 32.5976 34.4977 32.5976H13.4998C13.0857 32.5976 12.7499 32.2619 12.7499 31.8477V16.0996ZM14.2498 16.8495V31.0978H33.7478V16.8495H14.2498Z" fill="black"/>
<path fill-rule="evenodd" clip-rule="evenodd" d="M21.5047 20.7111C21.7258 20.5744 22.0019 20.562 22.2344 20.6782L27.4838 23.3029C27.7379 23.43 27.8984 23.6896 27.8984 23.9737C27.8984 24.2577 27.7379 24.5174 27.4838 24.6444L22.2344 27.2691C22.0019 27.3853 21.7258 27.3729 21.5047 27.2363C21.2836 27.0996 21.1491 26.8583 21.1491 26.5984V21.349C21.1491 21.0891 21.2836 20.8477 21.5047 20.7111ZM22.6489 22.5624V25.385L25.4716 23.9737L22.6489 22.5624Z" fill="black"/>
</svg>
