<svg width="40" height="40" viewBox="0 0 40 40" fill="none" xmlns="http://www.w3.org/2000/svg">
  <path d="M0 8C0 3.58172 3.58172 0 8 0H32C36.4183 0 40 3.58172 40 8V32C40 36.4183 36.4183 40 32 40H8C3.58172 40 0 36.4183 0 32V8Z" fill="white"/>
  <g clip-path="url(#clip0_106_775)">
    <path d="M31.2842 14.2662C31.0086 13.2437 30.2131 12.445 29.1946 12.1683C27.3624 11.6667 19.988 11.6667 19.988 11.6667C19.988 11.6667 12.6136 11.6819 10.7814 12.1835C9.76293 12.4602 8.96734 13.2589 8.69174 14.2814C8.13753 17.5498 7.92251 22.5299 8.70689 25.6675C8.98248 26.69 9.77807 27.4887 10.7965 27.7654C12.6288 28.267 20.0031 28.267 20.0031 28.267C20.0031 28.267 27.3775 28.267 29.2097 27.7654C30.2282 27.4887 31.0238 26.69 31.2994 25.6675C31.8839 22.3946 32.0641 17.4175 31.2842 14.2662Z" fill="#FF0000"/>
    <path d="M17.6409 23.5241L23.7584 19.9669L17.6409 16.4096V23.5241Z" fill="white"/>
  </g>
  <path d="M8 0.833333H32V-0.833333H8V0.833333ZM39.1667 8V32H40.8333V8H39.1667ZM32 39.1667H8V40.8333H32V39.1667ZM0.833333 32V8H-0.833333V32H0.833333ZM8 39.1667C4.04196 39.1667 0.833333 35.958 0.833333 32H-0.833333C-0.833333 36.8785 3.12148 40.8333 8 40.8333V39.1667ZM39.1667 32C39.1667 35.958 35.958 39.1667 32 39.1667V40.8333C36.8785 40.8333 40.8333 36.8785 40.8333 32H39.1667ZM32 0.833333C35.958 0.833333 39.1667 4.04196 39.1667 8H40.8333C40.8333 3.12148 36.8785 -0.833333 32 -0.833333V0.833333ZM8 -0.833333C3.12148 -0.833333 -0.833333 3.12148 -0.833333 8H0.833333C0.833333 4.04196 4.04196 0.833333 8 0.833333V-0.833333Z" fill="#EBEEF1"/>
  <defs>
    <clipPath id="clip0_106_775">
      <rect width="23.6111" height="16.6667" fill="white" transform="translate(8.19458 11.6667)"/>
    </clipPath>
  </defs>
</svg>
