<svg viewBox="0 0 24 24" class="sc-hOqqkJ dTSpKS"><g id="Page-1" stroke="none" stroke-width="1" fill="none" fill-rule="evenodd"><g id="support-banner--active" fill-rule="nonzero"><path d="M0,8 C0,3.58172 3.58172,0 8,0 L16,0 C20.4183,0 24,3.58172 24,8 L24,16 C24,20.4183 20.4183,24 16,24 L8,24 C3.58172,24 0,20.4183 0,16 L0,8 Z" id="Path" fill="#7C41FF"></path><path d="M15.5735,15.6679 C15.5735,16.3905 16.0885,16.927 16.7841,16.927 C17.4796,16.927 18,16.3905 18,15.6679 L18,7.2536 C18,6.5365 17.4796,6 16.7841,6 C16.0885,6 15.5735,6.5365 15.5735,7.2536 L15.5735,15.6679 Z M10.115,14.1734 C11.6761,14.3704 13.2637,14.8741 14.777,15.7007 C14.7717,15.635 14.7664,15.5693 14.7664,15.5036 L14.7664,7.4179 C14.7664,7.3686 14.7717,7.3193 14.7717,7.2701 C13.3168,8.0803 11.554,8.6332 10.115,8.7974 L10.115,14.1734 Z M8.3204,8.7974 C6.823,8.7974 6,9.6241 6,11.1131 L6,11.8577 C6,13.3467 6.823,14.1679 8.3204,14.1679 L9.3133,14.1679 L9.3133,8.7974 L8.3204,8.7974 Z M10.5398,18 C11.2566,18 11.8035,17.4142 11.5912,16.5383 L11.2407,15.0876 C10.8637,14.9343 10.0779,14.8522 9.3717,14.8467 L8.1717,14.8467 L9.2177,17.0091 C9.5257,17.6442 9.8602,18 10.5398,18 Z" id="Shape" fill="#FFFFFF"></path></g></g></svg>
