<svg viewBox="0 0 24 24" class="sc-hOqqkJ dTSpKS"><g id="Page-1" stroke="none" stroke-width="1" fill="none" fill-rule="evenodd"><g id="sensitive-material--active" fill-rule="nonzero"><path d="M0,8 C0,3.58172 3.58172,0 8,0 L16,0 C20.4183,0 24,3.58172 24,8 L24,16 C24,20.4183 20.4183,24 16,24 L8,24 C3.58172,24 0,20.4183 0,16 L0,8 Z" id="Path" fill="#7C41FF"></path><path d="M12,8.9814 C13.5055,8.9814 14.7273,10.2032 14.7273,11.7086 C14.7273,11.9868 14.6727,12.2541 14.5964,12.505 L16.2655,14.1741 C17.0236,13.5032 17.6236,12.6632 18,11.7032 C17.0564,9.3141 14.7273,7.6177 12,7.6177 C11.3073,7.6177 10.6418,7.7268 10.0145,7.9286 L11.1982,9.1123 C11.4545,9.0359 11.7218,8.9814 12,8.9814 Z M6.9327,7.1595 C6.72,7.3723 6.72,7.7159 6.9327,7.9286 L8.0073,9.0032 C7.1236,9.7068 6.42,10.6341 6,11.7086 C6.9436,14.1032 9.2727,15.7995 12,15.7995 C12.8291,15.7995 13.62,15.6359 14.3509,15.3523 L15.8345,16.8359 C16.0473,17.0486 16.3909,17.0486 16.6036,16.8359 C16.8164,16.6232 16.8164,16.2795 16.6036,16.0668 L7.7073,7.1595 C7.4945,6.94682 7.1455,6.94682 6.9327,7.1595 Z M12,14.4359 C10.4945,14.4359 9.2727,13.2141 9.2727,11.7086 C9.2727,11.2886 9.3709,10.8905 9.54,10.5414 L10.3964,11.3977 C10.38,11.4959 10.3636,11.5995 10.3636,11.7086 C10.3636,12.6141 11.0945,13.345 12,13.345 C12.1091,13.345 12.2073,13.3286 12.3109,13.3068 L13.1673,14.1632 C12.8127,14.3377 12.42,14.4359 12,14.4359 Z M13.62,11.5286 C13.5382,10.765 12.9382,10.1705 12.18,10.0886 L13.62,11.5286 Z" id="Shape" fill="#FFFFFF"></path></g></g></svg>