<svg viewBox="0 0 24 24" class="sc-hOqqkJ dTSpKS"><g id="Page-1" stroke="none" stroke-width="1" fill="none" fill-rule="evenodd"><g id="seo--active" fill-rule="nonzero"><path d="M0,8 C0,3.58172 3.58172,0 8,0 L16,0 C20.4183,0 24,3.58172 24,8 L24,16 C24,20.4183 20.4183,24 16,24 L8,24 C3.58172,24 0,20.4183 0,16 L0,8 Z" id="Path" fill="#7C41FF"></path><path d="M11.0978,15.628 C11.9431,15.628 12.7403,15.3963 13.4237,14.9981 L15.6417,17.1969 C15.8515,17.4049 16.1332,17.5 16.421,17.5 C17.0384,17.5 17.5,17.0305 17.5,16.4244 C17.5,16.1451 17.4041,15.8717 17.1883,15.6578 L14.9943,13.4827 C15.4439,12.7755 15.7016,11.9495 15.7016,11.064 C15.7016,8.5562 13.6275,6.5 11.0978,6.5 C8.5741,6.5 6.5,8.5562 6.5,11.064 C6.5,13.5719 8.5741,15.628 11.0978,15.628 Z M11.0978,14.1067 C9.4074,14.1067 8.0286,12.7399 8.0286,11.064 C8.0286,9.3882 9.4074,8.0213 11.0978,8.0213 C12.7883,8.0213 14.173,9.3882 14.173,11.064 C14.173,12.7399 12.7883,14.1067 11.0978,14.1067 Z" id="Shape" fill="#FFFFFF"></path></g></g></svg>