<svg viewBox="0 0 24 24" class="sc-hOqqkJ dTSpKS"><g id="Page-1" stroke="none" stroke-width="1" fill="none" fill-rule="evenodd"><g id="social-links--active" fill-rule="nonzero"><path d="M0,8 C0,3.58172 3.58172,0 8,0 L16,0 C20.4183,0 24,3.58172 24,8 L24,16 C24,20.4183 20.4183,24 16,24 L8,24 C3.58172,24 0,20.4183 0,16 L0,8 Z" id="Path" fill="#7C41FF"></path><path d="M11.994,6 C8.682,6 6,8.688 6,12 C6,15.312 8.682,18 11.994,18 C15.312,18 18,15.312 18,12 C18,8.688 15.312,6 11.994,6 Z M9.9,9.6 C10.398,9.6 10.8,10.002 10.8,10.5 C10.8,10.998 10.398,11.4 9.9,11.4 C9.402,11.4 9,10.998 9,10.5 C9,10.002 9.402,9.6 9.9,9.6 Z M14.826,13.632 C14.28,14.802 13.224,15.6 12,15.6 C10.776,15.6 9.72,14.802 9.174,13.632 C9.078,13.434 9.222,13.2 9.444,13.2 C9.444,13.2 10.6688,13.8 12,13.8 C13.3313,13.8 14.556,13.2 14.556,13.2 C14.778,13.2 14.922,13.434 14.826,13.632 Z M14.1,11.4 C13.602,11.4 13.2,10.998 13.2,10.5 C13.2,10.002 13.602,9.6 14.1,9.6 C14.598,9.6 15,10.002 15,10.5 C15,10.998 14.598,11.4 14.1,11.4 Z" id="Shape" fill="#FFFFFF"></path></g></g></svg>